  0
SECTION
  2
HEADER
  9
$ACADVER
  1
AC1006
  9
$EXTMIN
 10
0.000000
 20
0.000000
 30
0.000000
  9
$EXTMAX
 10
1201.000000
 20
1310.000000
 30
0.000000
  0
ENDSEC
  0
SECTION
  2
ENTITIES
  0
POLYLINE
  8
0
 66
1
 70
1
  0
VERTEX
  8
0
 10
168.871046
 20
1261.994014
 42
0.077141
  0
VERTEX
  8
0
 10
164.416271
 20
1258.676561
 42
0.043097
  0
VERTEX
  8
0
 10
160.100515
 20
1253.453635
 42
0.042026
  0
VERTEX
  8
0
 10
156.589376
 20
1247.327473
 42
0.055934
  0
VERTEX
  8
0
 10
154.543756
 20
1241.250000
 42
-0.008490
  0
VERTEX
  8
0
 10
154.252160
 20
1240.004104
 42
-0.013672
  0
VERTEX
  8
0
 10
153.956943
 20
1238.954688
 42
-0.007385
  0
VERTEX
  8
0
 10
153.678468
 20
1238.103946
 42
-0.320241
  0
VERTEX
  8
0
 10
153.532819
 20
1238.000000
 42
-0.106168
  0
VERTEX
  8
0
 10
153.303609
 20
1238.049224
 42
-0.000615
  0
VERTEX
  8
0
 10
151.299309
 20
1238.954688
 42
-0.002565
  0
VERTEX
  8
0
 10
149.014985
 20
1240.004203
 42
-0.001625
  0
VERTEX
  8
0
 10
146.362274
 20
1241.250000
 42
0.015713
  0
VERTEX
  8
0
 10
142.375949
 20
1242.986775
 42
0.039814
  0
VERTEX
  8
0
 10
139.359041
 20
1243.919602
 42
0.039638
  0
VERTEX
  8
0
 10
136.224633
 20
1244.364684
 42
0.015457
  0
VERTEX
  8
0
 10
131.848410
 20
1244.500000
 42
0.011320
  0
VERTEX
  8
0
 10
127.312002
 20
1244.397280
 42
0.052319
  0
VERTEX
  8
0
 10
124.719846
 20
1244.005987
 42
0.066546
  0
VERTEX
  8
0
 10
122.569162
 20
1243.128818
 42
0.025559
  0
VERTEX
  8
0
 10
119.848410
 20
1241.380051
 42
0.036821
  0
VERTEX
  8
0
 10
117.677413
 20
1239.566321
 42
0.032746
  0
VERTEX
  8
0
 10
115.702767
 20
1237.385137
 42
0.029220
  0
VERTEX
  8
0
 10
113.839058
 20
1234.729048
 42
0.019237
  0
VERTEX
  8
0
 10
112.000000
 20
1231.479156
 42
0.015755
  0
VERTEX
  8
0
 10
109.944426
 20
1227.168670
 42
0.052953
  0
VERTEX
  8
0
 10
108.999007
 20
1224.193356
 42
0.042745
  0
VERTEX
  8
0
 10
108.599102
 20
1220.773805
 42
0.007745
  0
VERTEX
  8
0
 10
108.500000
 20
1214.376249
 42
0.000000
  0
VERTEX
  8
0
 10
108.500000
 20
1204.054288
 42
0.000000
  0
VERTEX
  8
0
 10
103.035911
 20
1200.777144
 42
0.026147
  0
VERTEX
  8
0
 10
100.432213
 20
1199.024288
 42
0.030715
  0
VERTEX
  8
0
 10
98.169428
 20
1197.094198
 42
0.031616
  0
VERTEX
  8
0
 10
96.215608
 20
1194.954229
 42
0.031116
  0
VERTEX
  8
0
 10
94.535911
 20
1192.574011
 42
0.023683
  0
VERTEX
  8
0
 10
92.830171
 20
1189.488196
 42
0.060188
  0
VERTEX
  8
0
 10
91.984304
 20
1187.076880
 42
0.046313
  0
VERTEX
  8
0
 10
91.622190
 20
1184.185438
 42
0.009683
  0
VERTEX
  8
0
 10
91.557457
 20
1179.074011
 42
0.033872
  0
VERTEX
  8
0
 10
92.098509
 20
1171.817088
 42
0.047882
  0
VERTEX
  8
0
 10
93.624351
 20
1165.522783
 42
0.042899
  0
VERTEX
  8
0
 10
96.467305
 20
1159.144045
 42
0.021127
  0
VERTEX
  8
0
 10
101.091929
 20
1151.554487
 42
-0.009287
  0
VERTEX
  8
0
 10
102.971780
 20
1148.627675
 42
-0.012468
  0
VERTEX
  8
0
 10
104.558254
 20
1145.903944
 42
-0.009632
  0
VERTEX
  8
0
 10
105.770968
 20
1143.592777
 42
-0.116514
  0
VERTEX
  8
0
 10
106.000000
 20
1142.623266
 42
-0.056022
  0
VERTEX
  8
0
 10
105.884966
 20
1141.599800
 42
-0.004385
  0
VERTEX
  8
0
 10
105.250898
 20
1138.923427
 42
-0.005932
  0
VERTEX
  8
0
 10
104.426559
 20
1135.738383
 42
-0.004501
  0
VERTEX
  8
0
 10
103.449866
 20
1132.265110
 42
0.016570
  0
VERTEX
  8
0
 10
100.247550
 20
1119.723275
 42
0.021441
  0
VERTEX
  8
0
 10
98.192020
 20
1108.027770
 42
0.019915
  0
VERTEX
  8
0
 10
97.048667
 20
1095.536337
 42
0.011618
  0
VERTEX
  8
0
 10
96.624277
 20
1080.500000
 42
0.008094
  0
VERTEX
  8
0
 10
96.783297
 20
1066.311401
 42
0.020393
  0
VERTEX
  8
0
 10
97.487119
 20
1056.003862
 42
0.022382
  0
VERTEX
  8
0
 10
98.981347
 20
1046.359767
 42
0.011722
  0
VERTEX
  8
0
 10
101.655277
 20
1034.508923
 42
0.022240
  0
VERTEX
  8
0
 10
105.554043
 20
1021.435926
 42
0.019994
  0
VERTEX
  8
0
 10
110.722250
 20
1008.278717
 42
0.020214
  0
VERTEX
  8
0
 10
116.851942
 20
995.739847
 42
0.024395
  0
VERTEX
  8
0
 10
123.634269
 20
984.524520
 42
-0.007358
  0
VERTEX
  8
0
 10
124.923635
 20
982.547748
 42
-0.010333
  0
VERTEX
  8
0
 10
126.011316
 20
980.743798
 42
-0.006927
  0
VERTEX
  8
0
 10
126.863478
 20
979.213389
 42
-0.124185
  0
VERTEX
  8
0
 10
127.000000
 20
978.672196
 42
-0.130391
  0
VERTEX
  8
0
 10
126.841814
 20
978.075924
 42
-0.001968
  0
VERTEX
  8
0
 10
125.034230
 20
974.937668
 42
-0.005161
  0
VERTEX
  8
0
 10
122.872752
 20
971.305719
 42
-0.003371
  0
VERTEX
  8
0
 10
120.308018
 20
967.158847
 42
0.019972
  0
VERTEX
  8
0
 10
109.796503
 20
948.829722
 42
0.014802
  0
VERTEX
  8
0
 10
99.612179
 20
927.808716
 42
0.014722
  0
VERTEX
  8
0
 10
90.616008
 20
906.054095
 42
0.018808
  0
VERTEX
  8
0
 10
83.688919
 20
885.500000
 42
0.007990
  0
VERTEX
  8
0
 10
79.956237
 20
872.089635
 42
0.007151
  0
VERTEX
  8
0
 10
76.506005
 20
858.063019
 42
0.005572
  0
VERTEX
  8
0
 10
72.778792
 20
841.055795
 42
0.002313
  0
VERTEX
  8
0
 10
68.105744
 20
818.000000
 42
-0.001459
  0
VERTEX
  8
0
 10
65.688712
 20
805.969444
 42
-0.001945
  0
VERTEX
  8
0
 10
63.418588
 20
795.055422
 42
-0.001364
  0
VERTEX
  8
0
 10
61.454681
 20
785.917319
 42
-0.019859
  0
VERTEX
  8
0
 10
60.624325
 20
782.720587
 42
-0.030390
  0
VERTEX
  8
0
 10
59.708812
 20
780.247981
 42
-0.008427
  0
VERTEX
  8
0
 10
57.975053
 20
776.489704
 42
-0.008476
  0
VERTEX
  8
0
 10
55.864063
 20
772.292749
 42
-0.008788
  0
VERTEX
  8
0
 10
53.636491
 20
768.220587
 42
0.037609
  0
VERTEX
  8
0
 10
40.721917
 20
740.996868
 42
0.052009
  0
VERTEX
  8
0
 10
33.676686
 20
714.916818
 42
0.054524
  0
VERTEX
  8
0
 10
32.350701
 20
688.928200
 42
0.047548
  0
VERTEX
  8
0
 10
36.503210
 20
661.997238
 42
0.035139
  0
VERTEX
  8
0
 10
42.603549
 20
643.480980
 42
0.034951
  0
VERTEX
  8
0
 10
51.245689
 20
625.966772
 42
0.033869
  0
VERTEX
  8
0
 10
62.524792
 20
609.336718
 42
0.029059
  0
VERTEX
  8
0
 10
76.500000
 20
593.459969
 42
0.026223
  0
VERTEX
  8
0
 10
91.175618
 20
580.100809
 42
0.024148
  0
VERTEX
  8
0
 10
107.565513
 20
567.954918
 42
0.023090
  0
VERTEX
  8
0
 10
125.784023
 20
556.952390
 42
0.019627
  0
VERTEX
  8
0
 10
145.940145
 20
547.019315
 42
-0.003871
  0
VERTEX
  8
0
 10
153.272589
 20
543.688670
 42
-0.020359
  0
VERTEX
  8
0
 10
157.205840
 20
541.666792
 42
-0.034043
  0
VERTEX
  8
0
 10
159.434350
 20
540.195270
 42
-0.233917
  0
VERTEX
  8
0
 10
160.000000
 20
539.052347
 42
-0.149869
  0
VERTEX
  8
0
 10
159.858340
 20
538.590349
 42
-0.004009
  0
VERTEX
  8
0
 10
158.636173
 20
536.815612
 42
-0.008028
  0
VERTEX
  8
0
 10
157.136327
 20
534.746121
 42
-0.005371
  0
VERTEX
  8
0
 10
155.357183
 20
532.424791
 42
0.023026
  0
VERTEX
  8
0
 10
143.773552
 20
516.152162
 42
0.018800
  0
VERTEX
  8
0
 10
132.875643
 20
497.763579
 42
0.018979
  0
VERTEX
  8
0
 10
123.517245
 20
478.848506
 42
0.025365
  0
VERTEX
  8
0
 10
116.578583
 20
461.000000
 42
0.033703
  0
VERTEX
  8
0
 10
108.959363
 20
431.489929
 42
0.042990
  0
VERTEX
  8
0
 10
106.173156
 20
403.541736
 42
0.044347
  0
VERTEX
  8
0
 10
108.229530
 20
376.247972
 42
0.039797
  0
VERTEX
  8
0
 10
115.069688
 20
348.701276
 42
-0.010809
  0
VERTEX
  8
0
 10
117.845978
 20
339.768182
 42
-0.117800
  0
VERTEX
  8
0
 10
118.014927
 20
336.031821
 42
-0.118346
  0
VERTEX
  8
0
 10
116.475343
 20
332.629405
 42
-0.010950
  0
VERTEX
  8
0
 10
110.605881
 20
325.407057
 42
0.051962
  0
VERTEX
  8
0
 10
98.365638
 20
307.534524
 42
0.052086
  0
VERTEX
  8
0
 10
90.084761
 20
287.536369
 42
0.050416
  0
VERTEX
  8
0
 10
85.928039
 20
265.658847
 42
0.043273
  0
VERTEX
  8
0
 10
85.915803
 20
242.216636
 42
0.035304
  0
VERTEX
  8
0
 10
89.369727
 20
220.334256
 42
0.039829
  0
VERTEX
  8
0
 10
95.794116
 20
200.051418
 42
0.040993
  0
VERTEX
  8
0
 10
105.148010
 20
181.559150
 42
0.042043
  0
VERTEX
  8
0
 10
117.324881
 20
165.007360
 42
-0.007923
  0
VERTEX
  8
0
 10
119.499196
 20
162.438807
 42
-0.011429
  0
VERTEX
  8
0
 10
121.332934
 20
160.094336
 42
-0.007306
  0
VERTEX
  8
0
 10
122.781195
 20
158.092468
 42
-0.154124
  0
VERTEX
  8
0
 10
123.000000
 20
157.399496
 42
-0.213349
  0
VERTEX
  8
0
 10
122.728398
 20
156.791947
 42
-0.013740
  0
VERTEX
  8
0
 10
121.212530
 20
155.508580
 42
-0.018133
  0
VERTEX
  8
0
 10
119.246416
 20
154.048419
 42
-0.012383
  0
VERTEX
  8
0
 10
116.914996
 20
152.528394
 42
0.030224
  0
VERTEX
  8
0
 10
110.623617
 20
148.099079
 42
0.022603
  0
VERTEX
  8
0
 10
104.242197
 20
142.512834
 42
0.022862
  0
VERTEX
  8
0
 10
98.505881
 20
136.487501
 42
0.035213
  0
VERTEX
  8
0
 10
94.182647
 20
130.737762
 42
0.064829
  0
VERTEX
  8
0
 10
87.879169
 20
117.514858
 42
0.063518
  0
VERTEX
  8
0
 10
85.115238
 20
103.026127
 42
0.065046
  0
VERTEX
  8
0
 10
86.099570
 20
88.631601
 42
0.074611
  0
VERTEX
  8
0
 10
90.784976
 20
75.680705
 42
0.068524
  0
VERTEX
  8
0
 10
96.320900
 20
68.134322
 42
0.043486
  0
VERTEX
  8
0
 10
104.573159
 20
60.981757
 42
0.040329
  0
VERTEX
  8
0
 10
114.732148
 20
54.800635
 42
0.037472
  0
VERTEX
  8
0
 10
126.000000
 20
50.154745
 42
0.043653
  0
VERTEX
  8
0
 10
142.676424
 20
46.269136
 42
0.017658
  0
VERTEX
  8
0
 10
165.916800
 20
43.788107
 42
0.017475
  0
VERTEX
  8
0
 10
190.946349
 20
42.884299
 42
0.023115
  0
VERTEX
  8
0
 10
213.730127
 20
43.911942
 42
0.019415
  0
VERTEX
  8
0
 10
243.441713
 20
47.800031
 42
0.021799
  0
VERTEX
  8
0
 10
271.621432
 20
53.881135
 42
0.022901
  0
VERTEX
  8
0
 10
297.797918
 20
62.033665
 42
0.027578
  0
VERTEX
  8
0
 10
321.500000
 20
72.134728
 42
0.000000
  0
VERTEX
  8
0
 10
335.500000
 20
79.036181
 42
0.000000
  0
VERTEX
  8
0
 10
352.102598
 20
76.533681
 42
0.009402
  0
VERTEX
  8
0
 10
370.323811
 20
74.136664
 42
0.013507
  0
VERTEX
  8
0
 10
386.542371
 20
72.755013
 42
0.013557
  0
VERTEX
  8
0
 10
402.766212
 20
72.254184
 42
0.009576
  0
VERTEX
  8
0
 10
421.000000
 20
72.535071
 42
-0.000396
  0
VERTEX
  8
0
 10
429.857742
 20
72.834250
 42
-0.000538
  0
VERTEX
  8
0
 10
437.855249
 20
73.089425
 42
-0.000356
  0
VERTEX
  8
0
 10
444.571688
 20
73.291712
 42
-0.006046
  0
VERTEX
  8
0
 10
446.783828
 20
73.330001
 42
-0.081807
  0
VERTEX
  8
0
 10
448.802810
 20
73.008247
 42
-0.077256
  0
VERTEX
  8
0
 10
450.656252
 20
72.053923
 42
-0.042219
  0
VERTEX
  8
0
 10
452.915883
 20
70.095597
 42
-0.008136
  0
VERTEX
  8
0
 10
456.633698
 20
66.152892
 42
0.029715
  0
VERTEX
  8
0
 10
463.891833
 20
59.092261
 42
0.037605
  0
VERTEX
  8
0
 10
471.413849
 20
53.526576
 42
0.036425
  0
VERTEX
  8
0
 10
479.881572
 20
49.020576
 42
0.025351
  0
VERTEX
  8
0
 10
490.000000
 20
45.148094
 42
0.036392
  0
VERTEX
  8
0
 10
509.686300
 20
40.287195
 42
0.018914
  0
VERTEX
  8
0
 10
534.786021
 20
36.967420
 42
0.018170
  0
VERTEX
  8
0
 10
561.977172
 20
35.406586
 42
0.020175
  0
VERTEX
  8
0
 10
588.272734
 20
35.915278
 42
0.024601
  0
VERTEX
  8
0
 10
636.730409
 20
41.212329
 42
0.038304
  0
VERTEX
  8
0
 10
677.573080
 20
50.975633
 42
0.043703
  0
VERTEX
  8
0
 10
712.166974
 20
65.543163
 42
0.051248
  0
VERTEX
  8
0
 10
741.764333
 20
85.288342
 42
0.000000
  0
VERTEX
  8
0
 10
749.028665
 20
91.292753
 42
0.000000
  0
VERTEX
  8
0
 10
763.264333
 20
89.575846
 42
0.020509
  0
VERTEX
  8
0
 10
791.143841
 20
87.368384
 42
0.024468
  0
VERTEX
  8
0
 10
817.506937
 20
87.656385
 42
0.024989
  0
VERTEX
  8
0
 10
843.229047
 20
90.492540
 42
0.023233
  0
VERTEX
  8
0
 10
869.183001
 20
95.922574
 42
0.052849
  0
VERTEX
  8
0
 10
922.524834
 20
115.897108
 42
0.050020
  0
VERTEX
  8
0
 10
971.565614
 20
146.907322
 42
0.049539
  0
VERTEX
  8
0
 10
1013.895290
 20
187.366741
 42
0.049751
  0
VERTEX
  8
0
 10
1047.371247
 20
235.307565
 42
0.028927
  0
VERTEX
  8
0
 10
1066.143370
 20
273.940480
 42
0.025259
  0
VERTEX
  8
0
 10
1081.299712
 20
316.252060
 42
0.024706
  0
VERTEX
  8
0
 10
1092.414440
 20
360.885269
 42
0.024588
  0
VERTEX
  8
0
 10
1099.093538
 20
406.468062
 42
0.022822
  0
VERTEX
  8
0
 10
1099.872386
 20
421.820537
 42
0.006079
  0
VERTEX
  8
0
 10
1099.698262
 20
446.320942
 42
0.005983
  0
VERTEX
  8
0
 10
1098.935318
 20
470.742691
 42
0.024507
  0
VERTEX
  8
0
 10
1097.570837
 20
485.500000
 42
0.019826
  0
VERTEX
  8
0
 10
1091.561245
 20
518.366865
 42
0.026816
  0
VERTEX
  8
0
 10
1083.387307
 20
547.435716
 42
0.027279
  0
VERTEX
  8
0
 10
1072.276325
 20
575.071050
 42
0.021678
  0
VERTEX
  8
0
 10
1057.417482
 20
603.600194
 42
0.012223
  0
VERTEX
  8
0
 10
1048.194158
 20
618.712731
 42
0.011714
  0
VERTEX
  8
0
 10
1038.116501
 20
633.575587
 42
0.009619
  0
VERTEX
  8
0
 10
1025.681277
 20
650.329671
 42
0.004536
  0
VERTEX
  8
0
 10
1009.018484
 20
671.500000
 42
-0.002576
  0
VERTEX
  8
0
 10
998.766296
 20
684.420982
 42
-0.003452
  0
VERTEX
  8
0
 10
989.612427
 20
696.247796
 42
-0.000700
  0
VERTEX
  8
0
 10
981.393666
 20
707.050620
 42
-0.163682
  0
VERTEX
  8
0
 10
981.000000
 20
708.220930
 42
-0.455832
  0
VERTEX
  8
0
 10
981.177265
 20
708.374970
 42
-0.016366
  0
VERTEX
  8
0
 10
982.176122
 20
708.200727
 42
-0.020147
  0
VERTEX
  8
0
 10
983.468114
 20
707.876708
 42
-0.011446
  0
VERTEX
  8
0
 10
985.003819
 20
707.386640
 42
0.048047
  0
VERTEX
  8
0
 10
995.838866
 20
704.783636
 42
0.021121
  0
VERTEX
  8
0
 10
1010.534790
 20
703.345989
 42
0.021058
  0
VERTEX
  8
0
 10
1025.900987
 20
703.143593
 42
0.033010
  0
VERTEX
  8
0
 10
1039.051267
 20
704.395790
 42
0.064223
  0
VERTEX
  8
0
 10
1073.074791
 20
714.519261
 42
0.062858
  0
VERTEX
  8
0
 10
1103.687448
 20
732.995392
 42
0.062091
  0
VERTEX
  8
0
 10
1129.062455
 20
758.738438
 42
0.059968
  0
VERTEX
  8
0
 10
1147.689900
 20
790.213345
 42
0.034768
  0
VERTEX
  8
0
 10
1154.955335
 20
810.425180
 42
0.031246
  0
VERTEX
  8
0
 10
1159.663091
 20
832.181382
 42
0.030316
  0
VERTEX
  8
0
 10
1161.724679
 20
855.021765
 42
0.028330
  0
VERTEX
  8
0
 10
1161.085728
 20
878.471814
 42
0.052754
  0
VERTEX
  8
0
 10
1151.438366
 20
928.826444
 42
0.059139
  0
VERTEX
  8
0
 10
1131.644784
 20
974.015411
 42
0.058751
  0
VERTEX
  8
0
 10
1101.689879
 20
1013.554126
 42
0.050980
  0
VERTEX
  8
0
 10
1062.000000
 20
1047.202447
 42
0.026910
  0
VERTEX
  8
0
 10
1034.798097
 20
1063.787618
 42
0.032204
  0
VERTEX
  8
0
 10
1007.520201
 20
1076.275801
 42
0.032023
  0
VERTEX
  8
0
 10
978.732333
 20
1085.210041
 42
0.026093
  0
VERTEX
  8
0
 10
947.000000
 20
1091.139414
 42
0.026486
  0
VERTEX
  8
0
 10
934.438836
 20
1092.141301
 42
0.006529
  0
VERTEX
  8
0
 10
913.742360
 20
1092.422274
 42
0.006623
  0
VERTEX
  8
0
 10
892.992542
 20
1092.158144
 42
0.024814
  0
VERTEX
  8
0
 10
880.000000
 20
1091.174124
 42
0.038994
  0
VERTEX
  8
0
 10
836.424234
 20
1082.197472
 42
0.038602
  0
VERTEX
  8
0
 10
794.617170
 20
1066.543562
 42
0.039203
  0
VERTEX
  8
0
 10
756.335068
 20
1044.938550
 42
0.043329
  0
VERTEX
  8
0
 10
723.250000
 20
1018.250965
 42
-0.001688
  0
VERTEX
  8
0
 10
720.469505
 20
1015.597624
 42
-0.002891
  0
VERTEX
  8
0
 10
718.129688
 20
1013.405400
 42
-0.000467
  0
VERTEX
  8
0
 10
716.073288
 20
1011.504488
 42
-0.653737
  0
VERTEX
  8
0
 10
716.000000
 20
1011.536585
 42
-0.092307
  0
VERTEX
  8
0
 10
716.036030
 20
1011.730086
 42
-0.000187
  0
VERTEX
  8
0
 10
717.157642
 20
1014.634275
 42
-0.001307
  0
VERTEX
  8
0
 10
718.430073
 20
1017.899928
 42
-0.000809
  0
VERTEX
  8
0
 10
719.940909
 20
1021.729454
 42
0.022481
  0
VERTEX
  8
0
 10
725.118789
 20
1036.726776
 42
0.027751
  0
VERTEX
  8
0
 10
728.518539
 20
1051.117144
 42
0.026445
  0
VERTEX
  8
0
 10
730.411767
 20
1066.352362
 42
0.017619
  0
VERTEX
  8
0
 10
731.036654
 20
1083.937082
 42
0.008134
  0
VERTEX
  8
0
 10
730.849260
 20
1095.662049
 42
0.013574
  0
VERTEX
  8
0
 10
730.263405
 20
1105.514082
 42
0.013875
  0
VERTEX
  8
0
 10
729.155325
 20
1115.167172
 42
0.008999
  0
VERTEX
  8
0
 10
727.364716
 20
1126.260392
 42
-0.010299
  0
VERTEX
  8
0
 10
726.804729
 20
1129.787919
 42
-0.012194
  0
VERTEX
  8
0
 10
726.425905
 20
1133.142531
 42
-0.011078
  0
VERTEX
  8
0
 10
726.239008
 20
1135.974150
 42
-0.072541
  0
VERTEX
  8
0
 10
726.382314
 20
1137.387124
 42
-0.065781
  0
VERTEX
  8
0
 10
726.866240
 20
1138.608360
 42
-0.015620
  0
VERTEX
  8
0
 10
727.993790
 20
1140.489875
 42
-0.015802
  0
VERTEX
  8
0
 10
729.437187
 20
1142.587385
 42
-0.015010
  0
VERTEX
  8
0
 10
731.034183
 20
1144.626732
 42
0.021497
  0
VERTEX
  8
0
 10
732.837692
 20
1146.992372
 42
0.010762
  0
VERTEX
  8
0
 10
734.920786
 20
1150.124728
 42
0.010665
  0
VERTEX
  8
0
 10
736.940739
 20
1153.464057
 42
0.015486
  0
VERTEX
  8
0
 10
738.566767
 20
1156.500000
 42
0.060715
  0
VERTEX
  8
0
 10
743.064330
 20
1169.236167
 42
0.098214
  0
VERTEX
  8
0
 10
743.320640
 20
1180.685536
 42
0.114789
  0
VERTEX
  8
0
 10
739.306670
 20
1190.126892
 42
0.107010
  0
VERTEX
  8
0
 10
731.452139
 20
1197.113920
 42
0.000000
  0
VERTEX
  8
0
 10
726.002385
 20
1200.189571
 42
0.000000
  0
VERTEX
  8
0
 10
726.636913
 20
1209.872013
 42
0.009779
  0
VERTEX
  8
0
 10
726.867136
 20
1214.886140
 42
0.022513
  0
VERTEX
  8
0
 10
726.796579
 20
1218.660402
 42
0.027977
  0
VERTEX
  8
0
 10
726.411746
 20
1221.861393
 42
0.027275
  0
VERTEX
  8
0
 10
725.670073
 20
1225.027227
 42
0.102047
  0
VERTEX
  8
0
 10
720.543746
 20
1234.683388
 42
0.123527
  0
VERTEX
  8
0
 10
712.300095
 20
1240.738844
 42
0.115628
  0
VERTEX
  8
0
 10
701.725703
 20
1242.418265
 42
0.081945
  0
VERTEX
  8
0
 10
690.000000
 20
1239.595315
 42
-0.004649
  0
VERTEX
  8
0
 10
683.124583
 20
1236.765285
 42
-0.121443
  0
VERTEX
  8
0
 10
681.157314
 20
1236.489096
 42
-0.264635
  0
VERTEX
  8
0
 10
679.923583
 20
1237.369179
 42
-0.028276
  0
VERTEX
  8
0
 10
678.577380
 20
1240.767030
 42
0.083869
  0
VERTEX
  8
0
 10
671.910229
 20
1253.326243
 42
0.140684
  0
VERTEX
  8
0
 10
662.368037
 20
1260.370054
 42
0.164404
  0
VERTEX
  8
0
 10
651.643015
 20
1260.696892
 42
0.124626
  0
VERTEX
  8
0
 10
641.499202
 20
1254.569383
 42
0.036965
  0
VERTEX
  8
0
 10
638.518534
 20
1251.070016
 42
0.023115
  0
VERTEX
  8
0
 10
635.543312
 20
1246.581948
 42
0.015120
  0
VERTEX
  8
0
 10
631.953309
 20
1240.147916
 42
0.004369
  0
VERTEX
  8
0
 10
626.798937
 20
1230.000000
 42
-0.004729
  0
VERTEX
  8
0
 10
622.860968
 20
1222.260765
 42
-0.005859
  0
VERTEX
  8
0
 10
619.043131
 20
1215.135088
 42
-0.004858
  0
VERTEX
  8
0
 10
615.714122
 20
1209.229420
 42
-0.043036
  0
VERTEX
  8
0
 10
614.005021
 20
1206.779023
 42
-0.049460
  0
VERTEX
  8
0
 10
611.959606
 20
1204.768051
 42
-0.007157
  0
VERTEX
  8
0
 10
607.348352
 20
1201.161405
 42
-0.008052
  0
VERTEX
  8
0
 10
601.748628
 20
1197.049861
 42
-0.006813
  0
VERTEX
  8
0
 10
595.701119
 20
1192.880418
 42
0.004207
  0
VERTEX
  8
0
 10
581.893410
 20
1183.466509
 42
0.012348
  0
VERTEX
  8
0
 10
572.604527
 20
1176.672413
 42
0.016479
  0
VERTEX
  8
0
 10
565.285613
 20
1170.642245
 42
0.014983
  0
VERTEX
  8
0
 10
558.136881
 20
1163.954755
 42
0.016005
  0
VERTEX
  8
0
 10
551.644587
 20
1157.079392
 42
0.021309
  0
VERTEX
  8
0
 10
546.227515
 20
1150.409706
 42
0.021286
  0
VERTEX
  8
0
 10
541.393503
 20
1143.297472
 42
0.015919
  0
VERTEX
  8
0
 10
536.663104
 20
1135.084371
 42
0.000000
  0
VERTEX
  8
0
 10
532.230807
 20
1126.789029
 42
0.000000
  0
VERTEX
  8
0
 10
530.539621
 20
1131.880713
 42
0.124682
  0
VERTEX
  8
0
 10
524.357622
 20
1141.551758
 42
0.075147
  0
VERTEX
  8
0
 10
513.092283
 20
1149.324066
 42
0.068856
  0
VERTEX
  8
0
 10
498.903883
 20
1153.969804
 42
0.071527
  0
VERTEX
  8
0
 10
484.175197
 20
1154.502120
 42
0.004918
  0
VERTEX
  8
0
 10
481.583694
 20
1154.198785
 42
0.006207
  0
VERTEX
  8
0
 10
479.193011
 20
1153.864885
 42
0.005006
  0
VERTEX
  8
0
 10
477.198424
 20
1153.540551
 42
0.048839
  0
VERTEX
  8
0
 10
476.375538
 20
1153.313866
 42
-0.294811
  0
VERTEX
  8
0
 10
475.665654
 20
1153.462925
 42
-0.043731
  0
VERTEX
  8
0
 10
474.673120
 20
1154.634056
 42
-0.033282
  0
VERTEX
  8
0
 10
473.510396
 20
1156.534360
 42
-0.014216
  0
VERTEX
  8
0
 10
472.202740
 20
1159.213139
 42
0.047766
  0
VERTEX
  8
0
 10
469.375050
 20
1164.138594
 42
0.059012
  0
VERTEX
  8
0
 10
465.830405
 20
1168.063751
 42
0.053762
  0
VERTEX
  8
0
 10
461.192659
 20
1171.311974
 42
0.031391
  0
VERTEX
  8
0
 10
455.047851
 20
1174.210871
 42
0.027750
  0
VERTEX
  8
0
 10
451.692168
 20
1175.332444
 42
0.033966
  0
VERTEX
  8
0
 10
448.450976
 20
1175.986655
 42
0.025215
  0
VERTEX
  8
0
 10
444.461312
 20
1176.309888
 42
0.008030
  0
VERTEX
  8
0
 10
438.500000
 20
1176.395512
 42
0.008325
  0
VERTEX
  8
0
 10
431.955339
 20
1176.275430
 42
0.033075
  0
VERTEX
  8
0
 10
427.959033
 20
1175.869935
 42
0.038353
  0
VERTEX
  8
0
 10
424.345660
 20
1174.970675
 42
0.014000
  0
VERTEX
  8
0
 10
419.387982
 20
1173.168951
 42
0.025830
  0
VERTEX
  8
0
 10
412.420160
 20
1169.988306
 42
0.027024
  0
VERTEX
  8
0
 10
405.925570
 20
1166.148820
 42
0.026042
  0
VERTEX
  8
0
 10
399.674927
 20
1161.494774
 42
0.020813
  0
VERTEX
  8
0
 10
393.436502
 20
1155.870084
 42
0.000000
  0
VERTEX
  8
0
 10
387.373004
 20
1149.927465
 42
0.000000
  0
VERTEX
  8
0
 10
380.621890
 20
1154.454581
 42
0.031370
  0
VERTEX
  8
0
 10
373.883923
 20
1158.384242
 42
0.049199
  0
VERTEX
  8
0
 10
367.629216
 20
1160.788266
 42
0.044961
  0
VERTEX
  8
0
 10
360.628081
 20
1162.053330
 42
0.021577
  0
VERTEX
  8
0
 10
351.500000
 20
1162.471290
 42
0.008366
  0
VERTEX
  8
0
 10
345.940704
 20
1162.392778
 42
0.020604
  0
VERTEX
  8
0
 10
341.869778
 20
1162.098934
 42
0.027386
  0
VERTEX
  8
0
 10
338.642904
 20
1161.551605
 42
0.036390
  0
VERTEX
  8
0
 10
335.796599
 20
1160.685089
 42
0.076956
  0
VERTEX
  8
0
 10
330.386048
 20
1157.573713
 42
0.083404
  0
VERTEX
  8
0
 10
326.341456
 20
1153.044062
 42
0.079253
  0
VERTEX
  8
0
 10
323.856492
 20
1147.236125
 42
0.061265
  0
VERTEX
  8
0
 10
323.005577
 20
1140.394338
 42
0.000000
  0
VERTEX
  8
0
 10
323.000000
 20
1136.288677
 42
0.000000
  0
VERTEX
  8
0
 10
315.639800
 20
1135.732026
 42
0.039582
  0
VERTEX
  8
0
 10
309.649692
 20
1134.798448
 42
0.040899
  0
VERTEX
  8
0
 10
303.949343
 20
1132.937931
 42
0.044217
  0
VERTEX
  8
0
 10
299.359944
 20
1130.515792
 42
0.127029
  0
VERTEX
  8
0
 10
296.939171
 20
1127.886340
 42
-0.243507
  0
VERTEX
  8
0
 10
296.111936
 20
1127.318351
 42
-0.266878
  0
VERTEX
  8
0
 10
295.221839
 20
1127.692195
 42
-0.046522
  0
VERTEX
  8
0
 10
293.920930
 20
1129.773699
 42
-0.003662
  0
VERTEX
  8
0
 10
291.029446
 20
1135.634991
 42
0.036804
  0
VERTEX
  8
0
 10
281.819915
 20
1151.551804
 42
0.040309
  0
VERTEX
  8
0
 10
270.622360
 20
1165.436088
 42
0.034021
  0
VERTEX
  8
0
 10
255.756557
 20
1179.106164
 42
0.016640
  0
VERTEX
  8
0
 10
235.132090
 20
1194.533507
 42
-0.008882
  0
VERTEX
  8
0
 10
230.497987
 20
1197.889037
 42
-0.008815
  0
VERTEX
  8
0
 10
225.974134
 20
1201.415335
 42
-0.008705
  0
VERTEX
  8
0
 10
222.128056
 20
1204.636142
 42
-0.033625
  0
VERTEX
  8
0
 10
219.919516
 20
1206.828774
 42
-0.034201
  0
VERTEX
  8
0
 10
215.953224
 20
1212.009392
 42
-0.016081
  0
VERTEX
  8
0
 10
211.522354
 20
1219.189867
 42
-0.014001
  0
VERTEX
  8
0
 10
206.788032
 20
1228.007976
 42
-0.009471
  0
VERTEX
  8
0
 10
201.868223
 20
1238.303488
 42
0.014094
  0
VERTEX
  8
0
 10
197.411515
 20
1247.412456
 42
0.031950
  0
VERTEX
  8
0
 10
193.423273
 20
1253.960174
 42
0.042458
  0
VERTEX
  8
0
 10
189.546838
 20
1258.601586
 42
0.068800
  0
VERTEX
  8
0
 10
185.468905
 20
1261.719177
 42
0.066035
  0
VERTEX
  8
0
 10
181.545841
 20
1263.301837
 42
0.058822
  0
VERTEX
  8
0
 10
177.186437
 20
1263.889814
 42
0.058941
  0
VERTEX
  8
0
 10
172.818688
 20
1263.446333
 42
0.066896
  0
SEQEND
  0
POLYLINE
  8
0
 66
1
 70
1
  0
VERTEX
  8
0
 10
184.791652
 20
1221.741377
 42
0.007524
  0
VERTEX
  8
0
 10
188.001573
 20
1215.283292
 42
0.006174
  0
VERTEX
  8
0
 10
191.618208
 20
1208.481072
 42
0.006243
  0
VERTEX
  8
0
 10
195.097752
 20
1202.311356
 42
0.016388
  0
VERTEX
  8
0
 10
197.791652
 20
1198.002698
 42
0.014467
  0
VERTEX
  8
0
 10
201.205957
 20
1193.224894
 42
0.033740
  0
VERTEX
  8
0
 10
204.093406
 20
1189.911787
 42
0.032485
  0
VERTEX
  8
0
 10
207.466567
 20
1186.944107
 42
0.012532
  0
VERTEX
  8
0
 10
212.500000
 20
1183.262364
 42
-0.008773
  0
VERTEX
  8
0
 10
231.816756
 20
1169.354654
 42
-0.022938
  0
VERTEX
  8
0
 10
245.032093
 20
1158.504652
 42
-0.030435
  0
VERTEX
  8
0
 10
254.804053
 20
1148.560254
 42
-0.033330
  0
VERTEX
  8
0
 10
262.979995
 20
1137.786696
 42
-0.022173
  0
VERTEX
  8
0
 10
267.419093
 20
1130.350711
 42
-0.020803
  0
VERTEX
  8
0
 10
271.284979
 20
1122.393538
 42
-0.021222
  0
VERTEX
  8
0
 10
274.111892
 20
1115.066329
 42
-0.066161
  0
VERTEX
  8
0
 10
275.127489
 20
1109.887502
 42
-0.065165
  0
VERTEX
  8
0
 10
274.833538
 20
1105.610872
 42
-0.145753
  0
VERTEX
  8
0
 10
273.319949
 20
1102.761113
 42
-0.073727
  0
VERTEX
  8
0
 10
269.771136
 20
1100.086163
 42
-0.008547
  0
VERTEX
  8
0
 10
260.920294
 20
1095.460059
 42
0.004748
  0
VERTEX
  8
0
 10
255.235757
 20
1092.543679
 42
0.003239
  0
VERTEX
  8
0
 10
248.827964
 20
1089.125863
 42
0.003264
  0
VERTEX
  8
0
 10
242.690958
 20
1085.749221
 42
0.006575
  0
VERTEX
  8
0
 10
237.904693
 20
1082.991705
 42
-0.001046
  0
VERTEX
  8
0
 10
234.017565
 20
1080.694590
 42
-0.001697
  0
VERTEX
  8
0
 10
230.702616
 20
1078.760063
 42
-0.000227
  0
VERTEX
  8
0
 10
227.748628
 20
1077.051387
 42
-0.131743
  0
VERTEX
  8
0
 10
227.556986
 20
1077.000000
 42
-0.291886
  0
VERTEX
  8
0
 10
227.413951
 20
1077.091276
 42
-0.001064
  0
VERTEX
  8
0
 10
226.540302
 20
1078.982812
 42
-0.004944
  0
VERTEX
  8
0
 10
225.565362
 20
1081.162066
 42
-0.003028
  0
VERTEX
  8
0
 10
224.456757
 20
1083.750000
 42
0.030741
  0
VERTEX
  8
0
 10
218.175250
 20
1096.424162
 42
0.022986
  0
VERTEX
  8
0
 10
209.792724
 20
1109.572568
 42
0.023407
  0
VERTEX
  8
0
 10
200.593275
 20
1121.417884
 42
0.042422
  0
VERTEX
  8
0
 10
191.866417
 20
1130.031508
 42
0.012443
  0
VERTEX
  8
0
 10
188.551455
 20
1132.653430
 42
0.045332
  0
VERTEX
  8
0
 10
186.271469
 20
1134.062946
 42
0.065300
  0
VERTEX
  8
0
 10
184.243012
 20
1134.763837
 42
0.050611
  0
VERTEX
  8
0
 10
181.915860
 20
1135.000000
 42
0.023485
  0
VERTEX
  8
0
 10
179.828717
 20
1134.901914
 42
0.085907
  0
VERTEX
  8
0
 10
178.555338
 20
1134.555912
 42
0.121905
  0
VERTEX
  8
0
 10
177.716512
 20
1133.878530
 42
0.073006
  0
VERTEX
  8
0
 10
177.095426
 20
1132.750000
 42
0.110444
  0
VERTEX
  8
0
 10
176.757450
 20
1130.305002
 42
0.087640
  0
VERTEX
  8
0
 10
177.438173
 20
1127.719794
 42
0.057174
  0
VERTEX
  8
0
 10
179.303153
 20
1124.654093
 42
0.018975
  0
VERTEX
  8
0
 10
182.692779
 20
1120.619107
 42
-0.042587
  0
VERTEX
  8
0
 10
192.795979
 20
1107.370719
 42
-0.027843
  0
VERTEX
  8
0
 10
202.193646
 20
1090.598304
 42
-0.024528
  0
VERTEX
  8
0
 10
209.120158
 20
1074.485870
 42
-0.151866
  0
VERTEX
  8
0
 10
209.614127
 20
1065.598697
 42
-0.128863
  0
VERTEX
  8
0
 10
208.920656
 20
1064.335969
 42
-0.008968
  0
VERTEX
  8
0
 10
206.056993
 20
1061.420691
 42
-0.012263
  0
VERTEX
  8
0
 10
202.450596
 20
1058.048373
 42
-0.008902
  0
VERTEX
  8
0
 10
198.280754
 20
1054.467604
 42
0.014191
  0
VERTEX
  8
0
 10
187.414069
 20
1044.934509
 42
0.008012
  0
VERTEX
  8
0
 10
174.761676
 20
1032.799639
 42
0.008000
  0
VERTEX
  8
0
 10
162.423987
 20
1020.183745
 42
0.013381
  0
VERTEX
  8
0
 10
152.511043
 20
1009.139916
 42
0.000000
  0
VERTEX
  8
0
 10
143.700825
 20
998.779833
 42
0.000000
  0
VERTEX
  8
0
 10
140.276858
 20
1004.139916
 42
-0.024889
  0
VERTEX
  8
0
 10
134.563474
 20
1014.149015
 42
-0.022470
  0
VERTEX
  8
0
 10
129.657404
 20
1025.018500
 42
-0.021618
  0
VERTEX
  8
0
 10
125.576324
 20
1036.710649
 42
-0.019183
  0
VERTEX
  8
0
 10
122.334883
 20
1049.184625
 42
-0.041486
  0
VERTEX
  8
0
 10
120.810048
 20
1060.586323
 42
-0.012600
  0
VERTEX
  8
0
 10
120.376895
 20
1078.031019
 42
-0.012637
  0
VERTEX
  8
0
 10
120.824853
 20
1095.493626
 42
-0.040732
  0
VERTEX
  8
0
 10
122.356546
 20
1107.000000
 42
-0.013646
  0
VERTEX
  8
0
 10
124.588354
 20
1116.078682
 42
-0.011680
  0
VERTEX
  8
0
 10
127.420264
 20
1125.510066
 42
-0.011928
  0
VERTEX
  8
0
 10
130.418138
 20
1134.014349
 42
-0.030055
  0
VERTEX
  8
0
 10
133.111706
 20
1140.000000
 42
0.005480
  0
VERTEX
  8
0
 10
134.216734
 20
1142.164725
 42
0.007754
  0
VERTEX
  8
0
 10
135.149164
 20
1144.117281
 42
0.004801
  0
VERTEX
  8
0
 10
135.888307
 20
1145.770600
 42
0.102381
  0
VERTEX
  8
0
 10
135.997855
 20
1146.292871
 42
0.184261
  0
VERTEX
  8
0
 10
135.802053
 20
1146.810349
 42
0.002640
  0
VERTEX
  8
0
 10
133.556869
 20
1149.311889
 42
0.006887
  0
VERTEX
  8
0
 10
130.871897
 20
1152.191133
 42
0.004437
  0
VERTEX
  8
0
 10
127.685103
 20
1155.456984
 42
-0.028078
  0
VERTEX
  8
0
 10
120.208717
 20
1163.880823
 42
-0.048287
  0
VERTEX
  8
0
 10
115.124231
 20
1171.757021
 42
-0.072238
  0
VERTEX
  8
0
 10
113.037376
 20
1177.799958
 42
-0.362955
  0
VERTEX
  8
0
 10
114.649820
 20
1180.695865
 42
-0.122435
  0
VERTEX
  8
0
 10
115.792044
 20
1180.836781
 42
-0.007076
  0
VERTEX
  8
0
 10
119.311910
 20
1180.358480
 42
-0.010420
  0
VERTEX
  8
0
 10
123.523612
 20
1179.635296
 42
-0.007450
  0
VERTEX
  8
0
 10
128.203998
 20
1178.658292
 42
0.011265
  0
VERTEX
  8
0
 10
136.174674
 20
1177.057809
 42
0.057447
  0
VERTEX
  8
0
 10
140.680175
 20
1176.783242
 42
0.146643
  0
VERTEX
  8
0
 10
143.054753
 20
1177.636906
 42
0.237963
  0
VERTEX
  8
0
 10
144.000000
 20
1179.510563
 42
0.102516
  0
VERTEX
  8
0
 10
143.805774
 20
1180.447901
 42
0.005426
  0
VERTEX
  8
0
 10
142.555209
 20
1183.252121
 42
0.008349
  0
VERTEX
  8
0
 10
140.965737
 20
1186.567624
 42
0.005967
  0
VERTEX
  8
0
 10
139.081563
 20
1190.225379
 42
-0.015990
  0
VERTEX
  8
0
 10
135.285820
 20
1197.971615
 42
-0.030547
  0
VERTEX
  8
0
 10
132.828937
 20
1204.448288
 42
-0.036402
  0
VERTEX
  8
0
 10
131.459659
 20
1210.330055
 42
-0.039008
  0
VERTEX
  8
0
 10
131.000000
 20
1216.212886
 42
-0.013367
  0
VERTEX
  8
0
 10
131.075721
 20
1219.044781
 42
-0.044600
  0
VERTEX
  8
0
 10
131.339765
 20
1220.883771
 42
-0.075305
  0
VERTEX
  8
0
 10
131.805132
 20
1222.041925
 42
-0.169596
  0
VERTEX
  8
0
 10
132.517960
 20
1222.645266
 42
-0.205746
  0
VERTEX
  8
0
 10
136.118381
 20
1222.503256
 42
-0.039312
  0
VERTEX
  8
0
 10
141.916466
 20
1219.153909
 42
-0.029894
  0
VERTEX
  8
0
 10
149.464648
 20
1213.269227
 42
-0.011872
  0
VERTEX
  8
0
 10
159.121231
 20
1204.350430
 42
0.013027
  0
VERTEX
  8
0
 10
164.719153
 20
1199.204109
 42
0.058883
  0
VERTEX
  8
0
 10
168.376477
 20
1196.703567
 42
0.139284
  0
VERTEX
  8
0
 10
170.883714
 20
1196.181502
 42
0.235432
  0
VERTEX
  8
0
 10
172.690983
 20
1197.250000
 42
0.126719
  0
VERTEX
  8
0
 10
173.015436
 20
1198.221513
 42
0.004052
  0
VERTEX
  8
0
 10
173.274860
 20
1202.392188
 42
0.007597
  0
VERTEX
  8
0
 10
173.467570
 20
1207.353346
 42
0.005174
  0
VERTEX
  8
0
 10
173.542584
 20
1213.000000
 42
-0.012625
  0
VERTEX
  8
0
 10
173.803145
 20
1222.242196
 42
-0.021085
  0
VERTEX
  8
0
 10
174.545658
 20
1229.985650
 42
-0.016590
  0
VERTEX
  8
0
 10
175.575798
 20
1235.953281
 42
-0.359469
  0
VERTEX
  8
0
 10
176.868715
 20
1236.991377
 42
-0.274965
  0
VERTEX
  8
0
 10
177.229774
 20
1236.769848
 42
-0.001162
  0
VERTEX
  8
0
 10
179.456483
 20
1232.508133
 42
-0.005097
  0
VERTEX
  8
0
 10
181.950664
 20
1227.585344
 42
-0.003135
  0
SEQEND
  0
POLYLINE
  8
0
 66
1
 70
1
  0
VERTEX
  8
0
 10
658.075482
 20
1226.552489
 42
-0.022474
  0
VERTEX
  8
0
 10
658.514710
 20
1222.974815
 42
-0.009971
  0
VERTEX
  8
0
 10
658.787021
 20
1218.225652
 42
-0.009562
  0
VERTEX
  8
0
 10
658.882330
 20
1212.993054
 42
-0.010063
  0
VERTEX
  8
0
 10
658.774106
 20
1207.849143
 42
0.004844
  0
VERTEX
  8
0
 10
658.524139
 20
1199.909489
 42
0.045265
  0
VERTEX
  8
0
 10
658.758845
 20
1196.497664
 42
0.135750
  0
VERTEX
  8
0
 10
659.536975
 20
1194.796513
 42
0.183866
  0
VERTEX
  8
0
 10
661.000000
 20
1193.981467
 42
0.075222
  0
VERTEX
  8
0
 10
663.162251
 20
1193.993482
 42
0.094876
  0
VERTEX
  8
0
 10
665.041826
 20
1194.668748
 42
0.047561
  0
VERTEX
  8
0
 10
667.376084
 20
1196.367623
 42
0.006896
  0
VERTEX
  8
0
 10
671.731255
 20
1200.328208
 42
-0.015133
  0
VERTEX
  8
0
 10
681.171313
 20
1208.633047
 42
-0.026630
  0
VERTEX
  8
0
 10
689.516637
 20
1214.820606
 42
-0.031328
  0
VERTEX
  8
0
 10
696.512349
 20
1218.845771
 42
-0.115378
  0
VERTEX
  8
0
 10
701.447704
 20
1220.000000
 42
-0.057909
  0
VERTEX
  8
0
 10
702.684670
 20
1219.856255
 42
-0.116606
  0
VERTEX
  8
0
 10
703.558147
 20
1219.419633
 42
-0.109892
  0
VERTEX
  8
0
 10
704.175721
 20
1218.617604
 42
-0.047881
  0
VERTEX
  8
0
 10
704.628471
 20
1217.344154
 42
-0.112309
  0
VERTEX
  8
0
 10
704.760473
 20
1211.405643
 42
-0.031483
  0
VERTEX
  8
0
 10
702.319535
 20
1202.389840
 42
-0.030471
  0
VERTEX
  8
0
 10
698.228744
 20
1192.388735
 42
-0.030066
  0
VERTEX
  8
0
 10
692.936725
 20
1182.912453
 42
0.031527
  0
VERTEX
  8
0
 10
690.973763
 20
1179.373196
 42
0.077979
  0
VERTEX
  8
0
 10
690.134195
 20
1176.536060
 42
0.133598
  0
VERTEX
  8
0
 10
690.405896
 20
1174.513805
 42
0.204067
  0
VERTEX
  8
0
 10
691.659849
 20
1173.300287
 42
0.115151
  0
VERTEX
  8
0
 10
692.783508
 20
1173.145242
 42
0.008202
  0
VERTEX
  8
0
 10
695.942974
 20
1173.489651
 42
0.011206
  0
VERTEX
  8
0
 10
699.732442
 20
1174.052281
 42
0.008212
  0
VERTEX
  8
0
 10
703.909849
 20
1174.839363
 42
-0.009881
  0
VERTEX
  8
0
 10
714.848694
 20
1176.862613
 42
-0.103632
  0
VERTEX
  8
0
 10
719.375983
 20
1176.666028
 42
-0.324173
  0
VERTEX
  8
0
 10
721.022959
 20
1174.686313
 42
-0.100030
  0
VERTEX
  8
0
 10
720.479809
 20
1170.609746
 42
-0.049977
  0
VERTEX
  8
0
 10
718.259852
 20
1165.791175
 42
-0.028495
  0
VERTEX
  8
0
 10
714.696931
 20
1160.453344
 42
-0.026327
  0
VERTEX
  8
0
 10
710.135294
 20
1155.017593
 42
-0.023661
  0
VERTEX
  8
0
 10
704.869416
 20
1149.884228
 42
0.013820
  0
VERTEX
  8
0
 10
702.229150
 20
1147.409822
 42
0.019087
  0
VERTEX
  8
0
 10
700.010703
 20
1145.038044
 42
0.016309
  0
VERTEX
  8
0
 10
698.346828
 20
1142.985610
 42
0.163588
  0
VERTEX
  8
0
 10
698.000000
 20
1141.953912
 42
0.061865
  0
VERTEX
  8
0
 10
698.142748
 20
1140.804618
 42
0.005849
  0
VERTEX
  8
0
 10
698.870581
 20
1138.055816
 42
0.007413
  0
VERTEX
  8
0
 10
699.828705
 20
1134.789929
 42
0.005771
  0
VERTEX
  8
0
 10
700.963682
 20
1131.267795
 42
-0.020171
  0
VERTEX
  8
0
 10
704.139184
 20
1120.345693
 42
-0.026584
  0
VERTEX
  8
0
 10
706.092018
 20
1110.161282
 42
-0.023133
  0
VERTEX
  8
0
 10
707.118987
 20
1098.785648
 42
-0.010830
  0
VERTEX
  8
0
 10
707.446067
 20
1084.000000
 42
-0.004213
  0
VERTEX
  8
0
 10
707.358800
 20
1073.045452
 42
-0.014959
  0
VERTEX
  8
0
 10
707.033713
 20
1066.030314
 42
-0.020034
  0
VERTEX
  8
0
 10
706.349197
 20
1060.170443
 42
-0.013337
  0
VERTEX
  8
0
 10
705.118278
 20
1053.520191
 42
-0.014540
  0
VERTEX
  8
0
 10
702.642277
 20
1043.348269
 42
-0.017548
  0
VERTEX
  8
0
 10
699.709226
 20
1033.964372
 42
-0.018179
  0
VERTEX
  8
0
 10
696.227328
 20
1025.102756
 42
-0.018074
  0
VERTEX
  8
0
 10
692.104727
 20
1016.500000
 42
-0.016108
  0
VERTEX
  8
0
 10
688.127567
 20
1009.476436
 42
-0.011533
  0
VERTEX
  8
0
 10
683.252428
 20
1001.879220
 42
-0.004524
  0
VERTEX
  8
0
 10
678.337805
 20
994.735955
 42
-0.244483
  0
VERTEX
  8
0
 10
676.922641
 20
994.000000
 42
-0.226954
  0
VERTEX
  8
0
 10
676.486081
 20
994.208920
 42
-0.002776
  0
VERTEX
  8
0
 10
674.488464
 20
996.717187
 42
-0.007573
  0
VERTEX
  8
0
 10
672.208883
 20
999.704332
 42
-0.004802
  0
VERTEX
  8
0
 10
669.639392
 20
1003.250000
 42
0.015420
  0
VERTEX
  8
0
 10
661.458888
 20
1014.048217
 42
0.010958
  0
VERTEX
  8
0
 10
651.661103
 20
1025.654956
 42
0.010744
  0
VERTEX
  8
0
 10
641.083971
 20
1037.134969
 42
0.012519
  0
VERTEX
  8
0
 10
630.536761
 20
1047.564431
 42
-0.010081
  0
VERTEX
  8
0
 10
621.166210
 20
1056.740454
 42
-0.113184
  0
VERTEX
  8
0
 10
618.458510
 20
1061.153701
 42
-0.152021
  0
VERTEX
  8
0
 10
618.350880
 20
1065.797272
 42
-0.022555
  0
VERTEX
  8
0
 10
621.366777
 20
1074.787699
 42
-0.028079
  0
VERTEX
  8
0
 10
626.360240
 20
1085.823729
 42
-0.025127
  0
VERTEX
  8
0
 10
632.729497
 20
1096.662150
 42
-0.023330
  0
VERTEX
  8
0
 10
640.635487
 20
1107.546775
 42
-0.017743
  0
VERTEX
  8
0
 10
650.249592
 20
1118.724776
 42
0.037098
  0
VERTEX
  8
0
 10
654.674258
 20
1124.290847
 42
0.144711
  0
VERTEX
  8
0
 10
656.001485
 20
1128.433367
 42
0.281906
  0
VERTEX
  8
0
 10
654.508203
 20
1131.000094
 42
0.124526
  0
VERTEX
  8
0
 10
650.550000
 20
1131.996262
 42
0.101091
  0
VERTEX
  8
0
 10
646.928555
 20
1131.251884
 42
0.054262
  0
VERTEX
  8
0
 10
642.936438
 20
1129.005000
 42
0.033365
  0
VERTEX
  8
0
 10
637.862691
 20
1124.836496
 42
0.009254
  0
VERTEX
  8
0
 10
630.483849
 20
1117.638755
 42
0.029198
  0
VERTEX
  8
0
 10
619.289954
 20
1104.899971
 42
0.028015
  0
VERTEX
  8
0
 10
609.488748
 20
1090.772795
 42
0.029423
  0
VERTEX
  8
0
 10
601.886059
 20
1076.577298
 42
0.047768
  0
VERTEX
  8
0
 10
597.360200
 20
1063.676475
 42
0.028371
  0
VERTEX
  8
0
 10
596.350142
 20
1058.285521
 42
0.093490
  0
VERTEX
  8
0
 10
596.558753
 20
1054.689755
 42
0.105862
  0
VERTEX
  8
0
 10
598.038369
 20
1051.667928
 42
0.042272
  0
VERTEX
  8
0
 10
601.199794
 20
1048.279537
 42
-0.004306
  0
VERTEX
  8
0
 10
614.410980
 20
1036.115489
 42
-0.011150
  0
VERTEX
  8
0
 10
623.661121
 20
1027.054531
 42
-0.013336
  0
VERTEX
  8
0
 10
631.493468
 20
1018.592279
 42
-0.009160
  0
VERTEX
  8
0
 10
639.935925
 20
1008.604961
 42
-0.030788
  0
VERTEX
  8
0
 10
656.364462
 20
985.684754
 42
-0.024149
  0
VERTEX
  8
0
 10
671.352152
 20
959.018687
 42
-0.023250
  0
VERTEX
  8
0
 10
684.279262
 20
929.857621
 42
-0.022824
  0
VERTEX
  8
0
 10
694.531880
 20
899.443609
 42
-0.010273
  0
VERTEX
  8
0
 10
698.777867
 20
883.415114
 42
-0.008213
  0
VERTEX
  8
0
 10
702.711794
 20
865.985470
 42
-0.006656
  0
VERTEX
  8
0
 10
706.763699
 20
845.169006
 42
-0.003243
  0
VERTEX
  8
0
 10
711.408822
 20
818.500000
 42
0.000989
  0
VERTEX
  8
0
 10
716.773461
 20
786.856738
 42
0.014436
  0
VERTEX
  8
0
 10
719.010373
 20
775.752477
 42
0.036494
  0
VERTEX
  8
0
 10
721.259987
 20
768.495842
 42
0.023561
  0
VERTEX
  8
0
 10
724.855038
 20
760.460241
 42
-0.027714
  0
VERTEX
  8
0
 10
731.787283
 20
744.613817
 42
-0.036616
  0
VERTEX
  8
0
 10
736.197855
 20
729.490344
 42
-0.035919
  0
VERTEX
  8
0
 10
738.409311
 20
713.655556
 42
-0.025207
  0
VERTEX
  8
0
 10
738.707350
 20
695.649820
 42
-0.010861
  0
VERTEX
  8
0
 10
738.053514
 20
683.896655
 42
-0.027207
  0
VERTEX
  8
0
 10
736.925842
 20
675.383563
 42
-0.028585
  0
VERTEX
  8
0
 10
734.917417
 20
667.290524
 42
-0.013150
  0
VERTEX
  8
0
 10
731.430492
 20
657.000000
 42
-0.057354
  0
VERTEX
  8
0
 10
717.748626
 20
629.903620
 42
-0.050118
  0
VERTEX
  8
0
 10
697.717630
 20
605.250365
 42
-0.046828
  0
VERTEX
  8
0
 10
671.767500
 20
583.625491
 42
-0.038350
  0
VERTEX
  8
0
 10
640.500000
 20
565.536326
 42
-0.016616
  0
VERTEX
  8
0
 10
623.743908
 20
558.161969
 42
-0.010814
  0
VERTEX
  8
0
 10
603.950161
 20
550.717574
 42
-0.010873
  0
VERTEX
  8
0
 10
584.207758
 20
544.254799
 42
-0.019426
  0
VERTEX
  8
0
 10
567.686173
 20
539.934478
 42
0.043785
  0
VERTEX
  8
0
 10
563.042942
 20
538.475565
 42
0.098645
  0
VERTEX
  8
0
 10
559.987679
 20
536.436081
 42
0.161279
  0
VERTEX
  8
0
 10
558.794792
 20
534.062722
 42
0.184030
  0
VERTEX
  8
0
 10
559.342074
 20
531.592785
 42
0.144696
  0
VERTEX
  8
0
 10
561.879978
 20
529.449244
 42
0.079565
  0
VERTEX
  8
0
 10
565.846562
 20
528.414559
 42
0.043854
  0
VERTEX
  8
0
 10
572.038059
 20
528.360585
 42
0.010723
  0
VERTEX
  8
0
 10
582.195284
 20
529.383605
 42
0.016086
  0
VERTEX
  8
0
 10
594.817627
 20
531.342889
 42
0.013454
  0
VERTEX
  8
0
 10
608.069895
 20
534.210065
 42
0.012938
  0
VERTEX
  8
0
 10
621.701003
 20
537.921748
 42
0.012024
  0
VERTEX
  8
0
 10
635.462062
 20
542.417510
 42
-0.005260
  0
VERTEX
  8
0
 10
640.597908
 20
544.172634
 42
-0.006987
  0
VERTEX
  8
0
 10
645.306185
 20
545.653894
 42
-0.005122
  0
VERTEX
  8
0
 10
649.266876
 20
546.795315
 42
-0.067688
  0
VERTEX
  8
0
 10
650.771923
 20
547.000000
 42
-0.214070
  0
VERTEX
  8
0
 10
657.768093
 20
543.860798
 42
-0.009163
  0
VERTEX
  8
0
 10
675.784030
 20
522.854716
 42
-0.015049
  0
VERTEX
  8
0
 10
695.620856
 20
497.321496
 42
-0.012452
  0
VERTEX
  8
0
 10
715.226092
 20
469.000000
 42
-0.015804
  0
VERTEX
  8
0
 10
737.478872
 20
432.622293
 42
-0.021622
  0
VERTEX
  8
0
 10
755.009154
 20
398.463041
 42
-0.023161
  0
VERTEX
  8
0
 10
768.578087
 20
364.938849
 42
-0.023577
  0
VERTEX
  8
0
 10
778.897630
 20
330.500000
 42
-0.028995
  0
VERTEX
  8
0
 10
785.707646
 20
294.313139
 42
-0.031838
  0
VERTEX
  8
0
 10
788.003884
 20
258.699329
 42
-0.032790
  0
VERTEX
  8
0
 10
785.756241
 20
224.074895
 42
-0.035106
  0
VERTEX
  8
0
 10
778.999898
 20
190.840916
 42
-0.040988
  0
VERTEX
  8
0
 10
765.284841
 20
153.578288
 42
-0.054447
  0
VERTEX
  8
0
 10
746.627436
 20
122.691257
 42
-0.058306
  0
VERTEX
  8
0
 10
722.927561
 20
98.184445
 42
-0.058599
  0
VERTEX
  8
0
 10
694.248201
 20
79.858822
 42
-0.048755
  0
VERTEX
  8
0
 10
660.794596
 20
67.491917
 42
-0.028860
  0
VERTEX
  8
0
 10
619.046005
 20
59.074472
 42
-0.028195
  0
VERTEX
  8
0
 10
574.903229
 20
55.318828
 42
-0.035681
  0
VERTEX
  8
0
 10
534.000000
 20
57.071858
 42
-0.009151
  0
VERTEX
  8
0
 10
529.254792
 20
57.704128
 42
-0.043274
  0
VERTEX
  8
0
 10
526.589873
 20
58.348541
 42
-0.071335
  0
VERTEX
  8
0
 10
524.759516
 20
59.269525
 42
-0.059226
  0
VERTEX
  8
0
 10
523.128931
 20
60.719755
 42
-0.041944
  0
VERTEX
  8
0
 10
521.867389
 20
62.408063
 42
-0.086476
  0
VERTEX
  8
0
 10
521.249690
 20
63.930841
 42
-0.062163
  0
VERTEX
  8
0
 10
521.076269
 20
65.881558
 42
-0.013734
  0
VERTEX
  8
0
 10
521.287925
 20
69.238670
 42
-0.053960
  0
VERTEX
  8
0
 10
522.365302
 20
74.601864
 42
-0.023671
  0
VERTEX
  8
0
 10
524.876489
 20
81.409485
 42
-0.023647
  0
VERTEX
  8
0
 10
528.127740
 20
88.174396
 42
-0.039097
  0
VERTEX
  8
0
 10
531.564304
 20
93.495420
 42
0.062426
  0
VERTEX
  8
0
 10
533.455841
 20
96.746722
 42
0.149072
  0
VERTEX
  8
0
 10
533.748987
 20
99.495138
 42
0.215073
  0
VERTEX
  8
0
 10
532.475166
 20
101.304571
 42
0.134224
  0
VERTEX
  8
0
 10
529.931288
 20
102.000000
 42
0.073337
  0
VERTEX
  8
0
 10
526.675700
 20
101.519908
 42
0.065111
  0
VERTEX
  8
0
 10
523.551304
 20
100.113898
 42
0.049003
  0
VERTEX
  8
0
 10
520.201797
 20
97.563197
 42
0.020396
  0
VERTEX
  8
0
 10
516.195593
 20
93.523632
 42
0.034750
  0
VERTEX
  8
0
 10
512.032355
 20
88.279419
 42
0.030202
  0
VERTEX
  8
0
 10
508.417423
 20
82.264315
 42
0.030907
  0
VERTEX
  8
0
 10
505.645352
 20
76.039449
 42
0.043199
  0
VERTEX
  8
0
 10
504.016498
 20
70.172658
 42
-0.007461
  0
VERTEX
  8
0
 10
503.588911
 20
68.056748
 42
-0.009299
  0
VERTEX
  8
0
 10
503.125990
 20
66.105304
 42
-0.007815
  0
VERTEX
  8
0
 10
502.683309
 20
64.487807
 42
-0.067805
  0
VERTEX
  8
0
 10
502.380901
 20
63.807294
 42
-0.319180
  0
VERTEX
  8
0
 10
499.480106
 20
62.583234
 42
-0.031849
  0
VERTEX
  8
0
 10
491.825089
 20
64.803449
 42
-0.036136
  0
VERTEX
  8
0
 10
483.478081
 20
68.513055
 42
-0.050725
  0
VERTEX
  8
0
 10
476.715574
 20
73.058691
 42
-0.083637
  0
VERTEX
  8
0
 10
471.554187
 20
79.054642
 42
-0.064590
  0
VERTEX
  8
0
 10
468.072312
 20
86.960595
 42
-0.062293
  0
VERTEX
  8
0
 10
466.633451
 20
95.796481
 42
-0.066319
  0
VERTEX
  8
0
 10
467.468715
 20
104.521333
 42
-0.025908
  0
VERTEX
  8
0
 10
469.189488
 20
110.512446
 42
-0.039986
  0
VERTEX
  8
0
 10
471.343326
 20
115.448728
 42
-0.040156
  0
VERTEX
  8
0
 10
474.248070
 20
119.964371
 42
-0.026415
  0
VERTEX
  8
0
 10
478.253065
 20
124.674063
 42
-0.062307
  0
VERTEX
  8
0
 10
489.497090
 20
133.931771
 42
-0.055548
  0
VERTEX
  8
0
 10
503.107635
 20
140.563217
 42
-0.047669
  0
VERTEX
  8
0
 10
519.714249
 20
144.752839
 42
-0.028512
  0
VERTEX
  8
0
 10
540.000000
 20
146.682823
 42
0.009245
  0
VERTEX
  8
0
 10
550.209366
 20
147.258572
 42
0.053432
  0
VERTEX
  8
0
 10
555.516933
 20
148.233090
 42
0.137839
  0
VERTEX
  8
0
 10
558.077324
 20
149.846546
 42
0.223420
  0
VERTEX
  8
0
 10
558.811269
 20
152.262562
 42
0.184983
  0
VERTEX
  8
0
 10
557.511095
 20
154.584097
 42
0.071723
  0
VERTEX
  8
0
 10
554.319625
 20
156.546247
 42
0.041468
  0
VERTEX
  8
0
 10
548.901207
 20
158.372864
 42
0.011732
  0
VERTEX
  8
0
 10
540.202778
 20
160.307011
 42
-0.015373
  0
VERTEX
  8
0
 10
531.038371
 20
162.414905
 42
-0.080598
  0
VERTEX
  8
0
 10
526.327004
 20
164.505709
 42
-0.105350
  0
VERTEX
  8
0
 10
523.135214
 20
167.716997
 42
-0.035515
  0
VERTEX
  8
0
 10
519.945466
 20
173.536060
 42
-0.023607
  0
VERTEX
  8
0
 10
517.181676
 20
180.391529
 42
-0.028827
  0
VERTEX
  8
0
 10
515.281842
 20
187.039025
 42
-0.026584
  0
VERTEX
  8
0
 10
514.055760
 20
194.286741
 42
-0.015888
  0
VERTEX
  8
0
 10
513.333951
 20
203.000000
 42
-0.034966
  0
VERTEX
  8
0
 10
513.612833
 20
217.656109
 42
-0.039260
  0
VERTEX
  8
0
 10
515.962426
 20
231.559707
 42
-0.039960
  0
VERTEX
  8
0
 10
520.404158
 20
244.708559
 42
-0.038833
  0
VERTEX
  8
0
 10
526.915476
 20
257.116275
 42
-0.024200
  0
VERTEX
  8
0
 10
532.929737
 20
265.734350
 42
-0.037687
  0
VERTEX
  8
0
 10
538.987098
 20
272.461968
 42
-0.039089
  0
VERTEX
  8
0
 10
545.813691
 20
278.031086
 42
-0.028761
  0
VERTEX
  8
0
 10
554.146313
 20
283.124466
 42
0.041805
  0
VERTEX
  8
0
 10
574.644566
 20
296.399854
 42
0.034671
  0
VERTEX
  8
0
 10
594.063247
 20
313.693769
 42
0.034387
  0
VERTEX
  8
0
 10
611.074532
 20
333.680553
 42
0.039128
  0
VERTEX
  8
0
 10
624.386895
 20
355.000000
 42
0.009157
  0
VERTEX
  8
0
 10
629.076593
 20
364.426309
 42
0.024251
  0
VERTEX
  8
0
 10
631.972250
 20
371.374755
 42
0.034020
  0
VERTEX
  8
0
 10
633.512495
 20
376.764758
 42
0.071179
  0
VERTEX
  8
0
 10
633.809156
 20
381.107347
 42
0.065046
  0
VERTEX
  8
0
 10
633.207167
 20
384.019857
 42
0.151225
  0
VERTEX
  8
0
 10
631.900559
 20
385.797277
 42
0.166735
  0
VERTEX
  8
0
 10
629.916606
 20
386.424672
 42
0.083270
  0
VERTEX
  8
0
 10
627.299897
 20
385.920606
 42
0.132231
  0
VERTEX
  8
0
 10
625.995973
 20
384.990913
 42
0.007533
  0
VERTEX
  8
0
 10
622.888767
 20
381.096207
 42
0.010671
  0
VERTEX
  8
0
 10
619.214599
 20
376.130319
 42
0.006544
  0
VERTEX
  8
0
 10
615.087738
 20
370.131187
 42
-0.009200
  0
VERTEX
  8
0
 10
605.666389
 20
356.590161
 42
-0.013816
  0
VERTEX
  8
0
 10
596.911632
 20
345.166716
 42
-0.015094
  0
VERTEX
  8
0
 10
588.184893
 20
335.049055
 42
-0.015107
  0
VERTEX
  8
0
 10
578.865950
 20
325.479254
 42
-0.011939
  0
VERTEX
  8
0
 10
569.114886
 20
316.493251
 42
-0.023015
  0
VERTEX
  8
0
 10
560.824449
 20
309.861598
 42
-0.025048
  0
VERTEX
  8
0
 10
552.446341
 20
304.389500
 42
-0.017461
  0
VERTEX
  8
0
 10
542.500000
 20
299.038451
 42
-0.020163
  0
VERTEX
  8
0
 10
531.627260
 20
294.204622
 42
-0.032543
  0
VERTEX
  8
0
 10
521.992444
 20
291.086880
 42
-0.034659
  0
VERTEX
  8
0
 10
512.488965
 20
289.371241
 42
-0.027335
  0
VERTEX
  8
0
 10
502.047882
 20
288.800000
 42
-0.054023
  0
VERTEX
  8
0
 10
485.250946
 20
290.620144
 42
-0.071575
  0
VERTEX
  8
0
 10
470.869368
 20
296.013515
 42
-0.086965
  0
VERTEX
  8
0
 10
460.744843
 20
304.120548
 42
-0.148268
  0
VERTEX
  8
0
 10
456.286545
 20
313.900311
 42
-0.054102
  0
VERTEX
  8
0
 10
456.217176
 20
316.648888
 42
-0.123861
  0
VERTEX
  8
0
 10
456.882755
 20
318.596272
 42
-0.053893
  0
VERTEX
  8
0
 10
458.732750
 20
320.867776
 42
-0.004184
  0
VERTEX
  8
0
 10
464.362715
 20
326.340816
 42
0.006779
  0
VERTEX
  8
0
 10
467.672600
 20
329.592029
 42
0.010179
  0
VERTEX
  8
0
 10
470.462798
 20
332.525190
 42
0.005460
  0
VERTEX
  8
0
 10
472.719160
 20
335.050826
 42
0.181512
  0
VERTEX
  8
0
 10
473.000000
 20
335.798950
 42
0.163899
  0
VERTEX
  8
0
 10
472.425970
 20
337.503076
 42
0.065063
  0
VERTEX
  8
0
 10
470.667584
 20
339.281395
 42
0.064785
  0
VERTEX
  8
0
 10
468.495522
 20
340.559011
 42
0.154327
  0
VERTEX
  8
0
 10
466.652132
 20
340.736660
 42
0.000125
  0
VERTEX
  8
0
 10
465.440020
 20
340.477785
 42
0.000025
  0
VERTEX
  8
0
 10
463.280531
 20
340.015898
 42
0.000026
  0
VERTEX
  8
0
 10
460.767609
 20
339.478145
 42
0.000025
  0
VERTEX
  8
0
 10
458.196486
 20
338.927662
 42
-0.024448
  0
VERTEX
  8
0
 10
453.553246
 20
338.168418
 42
-0.107934
  0
VERTEX
  8
0
 10
450.812208
 20
338.448534
 42
-0.144083
  0
VERTEX
  8
0
 10
448.861390
 20
339.791977
 42
-0.056551
  0
VERTEX
  8
0
 10
447.085709
 20
342.571175
 42
-0.051144
  0
VERTEX
  8
0
 10
446.420233
 20
344.375388
 42
-0.056738
  0
VERTEX
  8
0
 10
446.165134
 20
346.214757
 42
-0.038178
  0
VERTEX
  8
0
 10
446.288613
 20
348.593407
 42
-0.010412
  0
VERTEX
  8
0
 10
446.847373
 20
352.315517
 42
-0.049877
  0
VERTEX
  8
0
 10
449.577994
 20
362.201151
 42
-0.058219
  0
VERTEX
  8
0
 10
454.120752
 20
370.811446
 42
-0.047669
  0
VERTEX
  8
0
 10
461.301659
 20
379.388089
 42
-0.021060
  0
VERTEX
  8
0
 10
472.264037
 20
389.324868
 42
0.015397
  0
VERTEX
  8
0
 10
480.191065
 20
396.348424
 42
0.049408
  0
VERTEX
  8
0
 10
484.817641
 20
401.663777
 42
0.052984
  0
VERTEX
  8
0
 10
488.140118
 20
407.581003
 42
0.019711
  0
VERTEX
  8
0
 10
491.561934
 20
416.500000
 42
0.042833
  0
VERTEX
  8
0
 10
493.730141
 20
425.310211
 42
0.026111
  0
VERTEX
  8
0
 10
494.837832
 20
435.975978
 42
0.026149
  0
VERTEX
  8
0
 10
494.827023
 20
446.655853
 42
0.044339
  0
VERTEX
  8
0
 10
493.563385
 20
455.500000
 42
0.093604
  0
VERTEX
  8
0
 10
483.164821
 20
478.961347
 42
0.081930
  0
VERTEX
  8
0
 10
464.517782
 20
498.293426
 42
0.069787
  0
VERTEX
  8
0
 10
437.797827
 20
512.911046
 42
0.044548
  0
VERTEX
  8
0
 10
403.634933
 20
522.446981
 42
-0.006223
  0
VERTEX
  8
0
 10
398.626506
 20
523.439382
 42
-0.008994
  0
VERTEX
  8
0
 10
394.228164
 20
524.450898
 42
-0.005329
  0
VERTEX
  8
0
 10
390.575390
 20
525.401880
 42
-0.130750
  0
VERTEX
  8
0
 10
389.677728
 20
525.922272
 42
-0.166489
  0
VERTEX
  8
0
 10
389.258086
 20
526.779051
 42
-0.051879
  0
VERTEX
  8
0
 10
389.226385
 20
528.231013
 42
-0.033756
  0
VERTEX
  8
0
 10
389.544287
 20
530.344137
 42
-0.010901
  0
VERTEX
  8
0
 10
390.292795
 20
533.421339
 42
0.011381
  0
VERTEX
  8
0
 10
391.540179
 20
538.570948
 42
0.051556
  0
VERTEX
  8
0
 10
391.884655
 20
541.637349
 42
0.057799
  0
VERTEX
  8
0
 10
391.573630
 20
544.543402
 42
0.016647
  0
VERTEX
  8
0
 10
390.429969
 20
548.923866
 42
0.098092
  0
VERTEX
  8
0
 10
386.464883
 20
556.462052
 42
0.086607
  0
VERTEX
  8
0
 10
379.771464
 20
562.311645
 42
0.076937
  0
VERTEX
  8
0
 10
370.743687
 20
566.042311
 42
0.056802
  0
VERTEX
  8
0
 10
360.000000
 20
567.390314
 42
0.011908
  0
VERTEX
  8
0
 10
355.038982
 20
567.328394
 42
0.040243
  0
VERTEX
  8
0
 10
351.822336
 20
566.951172
 42
0.044338
  0
VERTEX
  8
0
 10
348.872047
 20
566.084252
 42
0.016819
  0
VERTEX
  8
0
 10
344.928416
 20
564.379363
 42
0.059979
  0
VERTEX
  8
0
 10
338.114493
 20
560.093141
 42
0.067801
  0
VERTEX
  8
0
 10
332.827041
 20
554.463787
 42
0.055402
  0
VERTEX
  8
0
 10
328.499292
 20
546.690429
 42
0.025334
  0
VERTEX
  8
0
 10
324.548355
 20
535.753343
 42
-0.012615
  0
VERTEX
  8
0
 10
323.368897
 20
532.208776
 42
-0.019557
  0
VERTEX
  8
0
 10
322.156395
 20
529.221425
 42
-0.018415
  0
VERTEX
  8
0
 10
321.018177
 20
526.932708
 42
-0.147966
  0
VERTEX
  8
0
 10
320.190505
 20
526.116099
 42
-0.066397
  0
VERTEX
  8
0
 10
319.031045
 20
525.689878
 42
-0.005069
  0
VERTEX
  8
0
 10
315.765336
 20
524.995416
 42
-0.006896
  0
VERTEX
  8
0
 10
311.836394
 20
524.257707
 42
-0.005199
  0
VERTEX
  8
0
 10
307.500000
 20
523.551618
 42
0.032206
  0
VERTEX
  8
0
 10
280.668500
 20
517.680917
 42
0.044726
  0
VERTEX
  8
0
 10
257.731081
 20
508.805775
 42
0.049876
  0
VERTEX
  8
0
 10
238.786505
 20
496.974650
 42
0.060423
  0
VERTEX
  8
0
 10
223.882185
 20
482.271085
 42
0.035425
  0
VERTEX
  8
0
 10
216.189010
 20
471.041842
 42
0.046150
  0
VERTEX
  8
0
 10
210.911284
 20
459.761105
 42
0.047204
  0
VERTEX
  8
0
 10
207.873457
 20
447.914800
 42
0.039776
  0
VERTEX
  8
0
 10
206.874722
 20
435.000000
 42
0.039720
  0
VERTEX
  8
0
 10
207.990416
 20
421.379501
 42
0.051153
  0
VERTEX
  8
0
 10
211.257682
 20
409.260901
 42
0.051739
  0
VERTEX
  8
0
 10
216.879060
 20
398.165559
 42
0.042049
  0
VERTEX
  8
0
 10
225.017735
 20
387.600310
 42
-0.016326
  0
VERTEX
  8
0
 10
231.236785
 20
380.332356
 42
-0.025712
  0
VERTEX
  8
0
 10
236.032160
 20
373.667867
 42
-0.029625
  0
VERTEX
  8
0
 10
239.580900
 20
367.369108
 42
-0.038587
  0
VERTEX
  8
0
 10
242.014758
 20
361.216795
 42
-0.016200
  0
VERTEX
  8
0
 10
243.526078
 20
355.695386
 42
-0.068489
  0
VERTEX
  8
0
 10
243.860980
 20
352.289440
 42
-0.108658
  0
VERTEX
  8
0
 10
243.199934
 20
349.755796
 42
-0.078590
  0
VERTEX
  8
0
 10
241.478598
 20
347.387689
 42
-0.046577
  0
VERTEX
  8
0
 10
239.748200
 20
345.952794
 42
-0.107137
  0
VERTEX
  8
0
 10
238.189122
 20
345.319633
 42
-0.058149
  0
VERTEX
  8
0
 10
235.967050
 20
345.194759
 42
-0.006746
  0
VERTEX
  8
0
 10
230.985882
 20
345.561633
 42
0.018257
  0
VERTEX
  8
0
 10
225.267559
 20
345.850659
 42
0.095664
  0
VERTEX
  8
0
 10
222.181585
 20
345.299436
 42
0.188262
  0
VERTEX
  8
0
 10
220.586813
 20
343.844222
 42
0.115245
  0
VERTEX
  8
0
 10
220.000000
 20
341.332101
 42
0.134196
  0
VERTEX
  8
0
 10
220.670617
 20
338.878457
 42
0.070048
  0
VERTEX
  8
0
 10
222.662162
 20
336.382504
 42
0.050017
  0
VERTEX
  8
0
 10
226.005218
 20
333.801246
 42
0.022524
  0
VERTEX
  8
0
 10
230.841489
 20
331.080016
 42
-0.016913
  0
VERTEX
  8
0
 10
233.246456
 20
329.762110
 42
-0.019493
  0
VERTEX
  8
0
 10
235.442565
 20
328.341725
 42
-0.018945
  0
VERTEX
  8
0
 10
237.194112
 20
327.007510
 42
-0.097948
  0
VERTEX
  8
0
 10
237.962348
 20
326.070353
 42
-0.136280
  0
VERTEX
  8
0
 10
238.947701
 20
321.674407
 42
-0.081567
  0
VERTEX
  8
0
 10
237.807251
 20
316.405439
 42
-0.067258
  0
VERTEX
  8
0
 10
234.689091
 20
310.834108
 42
-0.048520
  0
VERTEX
  8
0
 10
229.873110
 20
305.575824
 42
-0.044590
  0
VERTEX
  8
0
 10
224.478791
 20
301.532720
 42
-0.053929
  0
VERTEX
  8
0
 10
218.774716
 20
298.803231
 42
-0.050135
  0
VERTEX
  8
0
 10
212.282376
 20
297.225633
 42
-0.031648
  0
VERTEX
  8
0
 10
204.500000
 20
296.641536
 42
-0.052389
  0
VERTEX
  8
0
 10
192.532166
 20
297.758309
 42
-0.057754
  0
VERTEX
  8
0
 10
181.466131
 20
301.341013
 42
-0.053093
  0
VERTEX
  8
0
 10
170.780656
 20
307.667610
 42
-0.034876
  0
VERTEX
  8
0
 10
159.931454
 20
317.000000
 42
-0.045586
  0
VERTEX
  8
0
 10
148.820136
 20
330.203027
 42
-0.043634
  0
VERTEX
  8
0
 10
140.099841
 20
345.388979
 42
-0.041493
  0
VERTEX
  8
0
 10
133.801511
 20
362.584258
 42
-0.033980
  0
VERTEX
  8
0
 10
129.906830
 20
381.774403
 42
-0.029665
  0
VERTEX
  8
0
 10
129.134811
 20
392.333448
 42
-0.014050
  0
VERTEX
  8
0
 10
129.331791
 20
405.986536
 42
-0.014067
  0
VERTEX
  8
0
 10
130.302411
 20
419.700754
 42
-0.027673
  0
VERTEX
  8
0
 10
131.980107
 20
430.500000
 42
-0.025804
  0
VERTEX
  8
0
 10
136.842187
 20
448.700109
 42
-0.020157
  0
VERTEX
  8
0
 10
143.915223
 20
467.900450
 42
-0.020111
  0
VERTEX
  8
0
 10
152.536058
 20
486.526457
 42
-0.025218
  0
VERTEX
  8
0
 10
162.058527
 20
503.000000
 42
-0.014126
  0
VERTEX
  8
0
 10
168.268125
 20
512.022316
 42
-0.011769
  0
VERTEX
  8
0
 10
175.355468
 20
521.257125
 42
-0.008674
  0
VERTEX
  8
0
 10
182.047496
 20
529.275688
 42
-0.091904
  0
VERTEX
  8
0
 10
185.358713
 20
531.924385
 42
-0.083302
  0
VERTEX
  8
0
 10
187.240541
 20
532.558833
 42
-0.038688
  0
VERTEX
  8
0
 10
189.817768
 20
532.769653
 42
-0.021389
  0
VERTEX
  8
0
 10
193.760830
 20
532.617812
 42
-0.004364
  0
VERTEX
  8
0
 10
200.716708
 20
531.990159
 42
0.011135
  0
VERTEX
  8
0
 10
211.217524
 20
531.185825
 42
0.028435
  0
VERTEX
  8
0
 10
218.847038
 20
531.206247
 42
0.037414
  0
VERTEX
  8
0
 10
224.158769
 20
531.924067
 42
0.184633
  0
VERTEX
  8
0
 10
226.649858
 20
533.535830
 42
0.036745
  0
VERTEX
  8
0
 10
227.674018
 20
535.176988
 42
0.160633
  0
VERTEX
  8
0
 10
227.860458
 20
536.290388
 42
0.126505
  0
VERTEX
  8
0
 10
227.365873
 20
537.446285
 42
0.019358
  0
VERTEX
  8
0
 10
225.750000
 20
539.385514
 42
0.096305
  0
VERTEX
  8
0
 10
223.747768
 20
540.893060
 42
0.023658
  0
VERTEX
  8
0
 10
219.944126
 20
542.528411
 42
0.015394
  0
VERTEX
  8
0
 10
213.995277
 20
544.552474
 42
0.003835
  0
VERTEX
  8
0
 10
204.146622
 20
547.486095
 42
-0.021693
  0
VERTEX
  8
0
 10
169.016535
 20
559.331359
 42
-0.033171
  0
VERTEX
  8
0
 10
139.869555
 20
572.872315
 42
-0.036856
  0
VERTEX
  8
0
 10
115.160237
 20
588.881717
 42
-0.038488
  0
VERTEX
  8
0
 10
93.450229
 20
608.136010
 42
-0.030731
  0
VERTEX
  8
0
 10
80.648291
 20
623.124117
 42
-0.034811
  0
VERTEX
  8
0
 10
70.353131
 20
638.980848
 42
-0.035851
  0
VERTEX
  8
0
 10
62.606187
 20
655.670026
 42
-0.036861
  0
VERTEX
  8
0
 10
57.406941
 20
673.141986
 42
-0.037276
  0
VERTEX
  8
0
 10
56.214012
 20
681.544771
 42
-0.013468
  0
VERTEX
  8
0
 10
55.736555
 20
693.603120
 42
-0.013424
  0
VERTEX
  8
0
 10
55.907623
 20
705.644868
 42
-0.038379
  0
VERTEX
  8
0
 10
56.890971
 20
713.955821
 42
-0.027575
  0
VERTEX
  8
0
 10
60.097893
 20
726.534671
 42
-0.023415
  0
VERTEX
  8
0
 10
64.819688
 20
739.406678
 42
-0.023309
  0
VERTEX
  8
0
 10
70.752775
 20
751.846953
 42
-0.026551
  0
VERTEX
  8
0
 10
77.590479
 20
763.132876
 42
0.000000
  0
VERTEX
  8
0
 10
83.191276
 20
771.358176
 42
0.000000
  0
VERTEX
  8
0
 10
91.042500
 20
810.429088
 42
-0.007501
  0
VERTEX
  8
0
 10
98.732776
 20
845.932885
 42
-0.014550
  0
VERTEX
  8
0
 10
106.121942
 20
874.001950
 42
-0.017027
  0
VERTEX
  8
0
 10
114.231803
 20
898.428602
 42
-0.016516
  0
VERTEX
  8
0
 10
124.060069
 20
922.500000
 42
-0.043889
  0
VERTEX
  8
0
 10
153.412635
 20
975.174453
 42
-0.044394
  0
VERTEX
  8
0
 10
191.409404
 20
1021.699353
 42
-0.045498
  0
VERTEX
  8
0
 10
236.018468
 20
1059.755414
 42
-0.051644
  0
VERTEX
  8
0
 10
285.000000
 20
1087.292868
 42
-0.004420
  0
VERTEX
  8
0
 10
290.299004
 20
1089.534044
 42
-0.003853
  0
VERTEX
  8
0
 10
295.884375
 20
1091.788139
 42
-0.003877
  0
VERTEX
  8
0
 10
300.967175
 20
1093.748597
 42
-0.011441
  0
VERTEX
  8
0
 10
304.500000
 20
1094.988311
 42
0.007237
  0
VERTEX
  8
0
 10
307.275924
 20
1095.936287
 42
0.008999
  0
VERTEX
  8
0
 10
309.827045
 20
1096.901067
 42
0.007571
  0
VERTEX
  8
0
 10
311.933299
 20
1097.778432
 42
0.065261
  0
VERTEX
  8
0
 10
312.804834
 20
1098.301061
 42
0.156975
  0
VERTEX
  8
0
 10
313.392893
 20
1099.181480
 42
0.040506
  0
VERTEX
  8
0
 10
313.730582
 20
1100.877809
 42
0.028721
  0
VERTEX
  8
0
 10
313.875079
 20
1103.361652
 42
0.010217
  0
VERTEX
  8
0
 10
313.804834
 20
1106.917953
 42
0.000000
  0
VERTEX
  8
0
 10
313.500000
 20
1114.500000
 42
0.000000
  0
VERTEX
  8
0
 10
317.184052
 20
1114.806434
 42
-0.056840
  0
VERTEX
  8
0
 10
319.252461
 20
1114.743183
 42
-0.016849
  0
VERTEX
  8
0
 10
322.373033
 20
1114.182353
 42
-0.015748
  0
VERTEX
  8
0
 10
326.048746
 20
1113.271110
 42
-0.012194
  0
VERTEX
  8
0
 10
329.990949
 20
1112.056434
 42
0.019601
  0
VERTEX
  8
0
 10
339.926572
 20
1109.155450
 42
0.257748
  0
VERTEX
  8
0
 10
343.500211
 20
1110.104704
 42
0.185524
  0
VERTEX
  8
0
 10
345.283659
 20
1113.895216
 42
0.009950
  0
VERTEX
  8
0
 10
346.000000
 20
1127.399116
 42
0.000000
  0
VERTEX
  8
0
 10
346.500000
 20
1142.500000
 42
0.000000
  0
VERTEX
  8
0
 10
349.937843
 20
1142.827368
 42
-0.093464
  0
VERTEX
  8
0
 10
356.419933
 20
1142.232942
 42
-0.049943
  0
VERTEX
  8
0
 10
363.924323
 20
1139.256144
 42
-0.043591
  0
VERTEX
  8
0
 10
371.825580
 20
1134.252046
 42
-0.033438
  0
VERTEX
  8
0
 10
379.521544
 20
1127.521934
 42
0.015768
  0
VERTEX
  8
0
 10
381.773845
 20
1125.407377
 42
0.020408
  0
VERTEX
  8
0
 10
383.974719
 20
1123.622068
 42
0.018584
  0
VERTEX
  8
0
 10
385.889878
 20
1122.301840
 42
0.142550
  0
VERTEX
  8
0
 10
386.927082
 20
1122.000000
 42
0.168913
  0
VERTEX
  8
0
 10
388.008463
 20
1122.376048
 42
0.027700
  0
VERTEX
  8
0
 10
389.691705
 20
1123.866482
 42
0.025040
  0
VERTEX
  8
0
 10
391.706588
 20
1126.070397
 42
0.013156
  0
VERTEX
  8
0
 10
393.995711
 20
1128.994215
 42
-0.026356
  0
VERTEX
  8
0
 10
399.800847
 20
1136.018869
 42
-0.026713
  0
VERTEX
  8
0
 10
406.288122
 20
1142.360612
 42
-0.027504
  0
VERTEX
  8
0
 10
413.206676
 20
1147.793021
 42
-0.032745
  0
VERTEX
  8
0
 10
420.301422
 20
1152.096007
 42
-0.012019
  0
VERTEX
  8
0
 10
425.013369
 20
1154.405268
 42
-0.035478
  0
VERTEX
  8
0
 10
428.385444
 20
1155.677311
 42
-0.039705
  0
VERTEX
  8
0
 10
431.689300
 20
1156.382979
 42
-0.018310
  0
VERTEX
  8
0
 10
436.069388
 20
1156.797875
 42
-0.030578
  0
VERTEX
  8
0
 10
441.927379
 20
1156.778469
 42
-0.073499
  0
VERTEX
  8
0
 10
446.159624
 20
1155.871159
 42
-0.096690
  0
VERTEX
  8
0
 10
449.225336
 20
1153.988607
 42
-0.087741
  0
VERTEX
  8
0
 10
451.483073
 20
1151.032733
 42
-0.069520
  0
VERTEX
  8
0
 10
452.611859
 20
1147.825732
 42
-0.058897
  0
VERTEX
  8
0
 10
452.906259
 20
1144.241779
 42
-0.050192
  0
VERTEX
  8
0
 10
452.350702
 20
1140.181921
 42
-0.030441
  0
VERTEX
  8
0
 10
450.929853
 20
1135.542061
 42
0.041442
  0
VERTEX
  8
0
 10
449.004902
 20
1128.724458
 42
0.308748
  0
VERTEX
  8
0
 10
450.267650
 20
1125.791708
 42
0.220491
  0
VERTEX
  8
0
 10
454.010258
 20
1125.297630
 42
0.024672
  0
VERTEX
  8
0
 10
462.285956
 20
1128.338348
 42
-0.021959
  0
VERTEX
  8
0
 10
470.542701
 20
1131.423026
 42
-0.026746
  0
VERTEX
  8
0
 10
478.516483
 20
1133.545489
 42
-0.029537
  0
VERTEX
  8
0
 10
485.763966
 20
1134.623132
 42
-0.052480
  0
VERTEX
  8
0
 10
491.792721
 20
1134.524789
 42
-0.031856
  0
VERTEX
  8
0
 10
497.310394
 20
1133.492982
 42
-0.048647
  0
VERTEX
  8
0
 10
501.888745
 20
1131.843649
 42
-0.058670
  0
VERTEX
  8
0
 10
505.337671
 20
1129.680410
 42
-0.104414
  0
VERTEX
  8
0
 10
507.450219
 20
1127.096266
 42
-0.078845
  0
VERTEX
  8
0
 10
508.397111
 20
1124.237824
 42
-0.099156
  0
VERTEX
  8
0
 10
508.299302
 20
1121.455967
 42
-0.070132
  0
VERTEX
  8
0
 10
507.039914
 20
1118.236184
 42
-0.022419
  0
VERTEX
  8
0
 10
504.312744
 20
1113.864097
 42
0.017910
  0
VERTEX
  8
0
 10
503.020556
 20
1111.833509
 42
0.022489
  0
VERTEX
  8
0
 10
501.978849
 20
1109.861273
 42
0.021438
  0
VERTEX
  8
0
 10
501.266534
 20
1108.167531
 42
0.137223
  0
VERTEX
  8
0
 10
501.190584
 20
1107.248892
 42
0.214364
  0
VERTEX
  8
0
 10
501.813604
 20
1106.362386
 42
0.030958
  0
VERTEX
  8
0
 10
503.829208
 20
1105.328434
 42
0.024407
  0
VERTEX
  8
0
 10
506.913635
 20
1104.155915
 42
0.008626
  0
VERTEX
  8
0
 10
511.434678
 20
1102.771182
 42
-0.007703
  0
VERTEX
  8
0
 10
515.981091
 20
1101.387852
 42
-0.004290
  0
VERTEX
  8
0
 10
521.478233
 20
1099.570092
 42
-0.004278
  0
VERTEX
  8
0
 10
527.009735
 20
1097.635197
 42
-0.006914
  0
VERTEX
  8
0
 10
531.678885
 20
1095.883694
 42
0.007828
  0
VERTEX
  8
0
 10
535.754395
 20
1094.363366
 42
0.010753
  0
VERTEX
  8
0
 10
539.467332
 20
1093.133394
 42
0.007689
  0
VERTEX
  8
0
 10
542.585874
 20
1092.226486
 42
0.114973
  0
VERTEX
  8
0
 10
543.711330
 20
1092.182924
 42
0.171759
  0
VERTEX
  8
0
 10
545.265227
 20
1093.094321
 42
0.066961
  0
VERTEX
  8
0
 10
546.620371
 20
1095.225268
 42
0.039701
  0
VERTEX
  8
0
 10
547.936969
 20
1098.795016
 42
0.011429
  0
VERTEX
  8
0
 10
549.400534
 20
1104.500000
 42
-0.034903
  0
VERTEX
  8
0
 10
551.427856
 20
1111.099432
 42
-0.014607
  0
VERTEX
  8
0
 10
555.026296
 20
1119.681385
 42
-0.014703
  0
VERTEX
  8
0
 10
559.209166
 20
1128.217060
 42
-0.027926
  0
VERTEX
  8
0
 10
563.147677
 20
1134.774201
 42
-0.033407
  0
VERTEX
  8
0
 10
567.804577
 20
1140.731150
 42
-0.012347
  0
VERTEX
  8
0
 10
575.110464
 20
1148.495272
 42
-0.012537
  0
VERTEX
  8
0
 10
583.100048
 20
1156.181225
 42
-0.021941
  0
VERTEX
  8
0
 10
590.137464
 20
1162.073755
 42
-0.008347
  0
VERTEX
  8
0
 10
593.894648
 20
1164.850842
 42
-0.003547
  0
VERTEX
  8
0
 10
599.016043
 20
1168.451114
 42
-0.003508
  0
VERTEX
  8
0
 10
604.536702
 20
1172.216811
 42
-0.004592
  0
VERTEX
  8
0
 10
609.637464
 20
1175.576332
 42
0.000516
  0
VERTEX
  8
0
 10
614.450614
 20
1178.690469
 42
0.000569
  0
VERTEX
  8
0
 10
619.103216
 20
1181.715068
 42
0.000528
  0
VERTEX
  8
0
 10
623.072122
 20
1184.307610
 42
0.002905
  0
VERTEX
  8
0
 10
625.203270
 20
1185.720675
 42
0.075192
  0
VERTEX
  8
0
 10
628.802360
 20
1189.016268
 42
0.025793
  0
VERTEX
  8
0
 10
632.964733
 20
1194.752589
 42
0.019003
  0
VERTEX
  8
0
 10
637.937038
 20
1203.082831
 42
0.007312
  0
VERTEX
  8
0
 10
644.224934
 20
1215.000000
 42
-0.000875
  0
VERTEX
  8
0
 10
651.369872
 20
1228.974472
 42
-0.015739
  0
VERTEX
  8
0
 10
653.808409
 20
1233.376673
 42
-0.073900
  0
VERTEX
  8
0
 10
655.145421
 20
1235.013680
 42
-0.469444
  0
VERTEX
  8
0
 10
656.071892
 20
1234.883677
 42
-0.071514
  0
VERTEX
  8
0
 10
656.454577
 20
1234.005090
 42
-0.007998
  0
VERTEX
  8
0
 10
656.999914
 20
1231.887121
 42
-0.009589
  0
VERTEX
  8
0
 10
657.563185
 20
1229.330259
 42
-0.007640
  0
SEQEND
  0
POLYLINE
  8
0
 66
1
 70
1
  0
VERTEX
  8
0
 10
940.000000
 20
1068.887007
 42
-0.057059
  0
VERTEX
  8
0
 10
989.788098
 20
1058.259794
 42
-0.054334
  0
VERTEX
  8
0
 10
1036.770698
 20
1036.550416
 42
-0.055077
  0
VERTEX
  8
0
 10
1077.387717
 20
1005.579986
 42
-0.062249
  0
VERTEX
  8
0
 10
1108.394277
 20
967.623693
 42
-0.031261
  0
VERTEX
  8
0
 10
1118.891315
 20
948.322922
 42
-0.028327
  0
VERTEX
  8
0
 10
1127.292307
 20
927.227179
 42
-0.027692
  0
VERTEX
  8
0
 10
1133.420560
 20
904.820605
 42
-0.026707
  0
VERTEX
  8
0
 10
1137.124804
 20
881.601880
 42
-0.022765
  0
VERTEX
  8
0
 10
1137.822018
 20
869.854514
 42
-0.011274
  0
VERTEX
  8
0
 10
1137.690733
 20
854.916472
 42
-0.011114
  0
VERTEX
  8
0
 10
1136.908922
 20
840.334369
 42
-0.029517
  0
VERTEX
  8
0
 10
1135.507283
 20
830.000000
 42
-0.057566
  0
VERTEX
  8
0
 10
1124.853148
 20
796.605237
 42
-0.065414
  0
VERTEX
  8
0
 10
1107.177461
 20
768.062994
 42
-0.067513
  0
VERTEX
  8
0
 10
1083.280430
 20
745.762354
 42
-0.067890
  0
VERTEX
  8
0
 10
1054.349586
 20
730.683619
 42
-0.023896
  0
VERTEX
  8
0
 10
1046.139136
 20
728.169821
 42
-0.022649
  0
VERTEX
  8
0
 10
1037.578790
 20
726.398559
 42
-0.021661
  0
VERTEX
  8
0
 10
1028.528337
 20
725.349211
 42
-0.018030
  0
VERTEX
  8
0
 10
1018.847374
 20
725.000000
 42
-0.019111
  0
VERTEX
  8
0
 10
1008.486900
 20
725.396142
 42
-0.029294
  0
VERTEX
  8
0
 10
999.587447
 20
726.604978
 42
-0.031870
  0
VERTEX
  8
0
 10
991.472186
 20
728.740339
 42
-0.029756
  0
VERTEX
  8
0
 10
983.500000
 20
731.929250
 42
-0.055703
  0
VERTEX
  8
0
 10
970.868931
 20
739.695976
 42
-0.074680
  0
VERTEX
  8
0
 10
961.628970
 20
749.434673
 42
-0.072241
  0
VERTEX
  8
0
 10
955.451980
 20
761.722109
 42
-0.048323
  0
VERTEX
  8
0
 10
951.934998
 20
777.087799
 42
-0.067419
  0
VERTEX
  8
0
 10
952.061152
 20
797.447017
 42
-0.062381
  0
VERTEX
  8
0
 10
957.544120
 20
817.616464
 42
-0.064513
  0
VERTEX
  8
0
 10
967.569774
 20
835.172289
 42
-0.083771
  0
VERTEX
  8
0
 10
981.029038
 20
847.860555
 42
-0.078707
  0
VERTEX
  8
0
 10
993.295804
 20
853.511294
 42
-0.081467
  0
VERTEX
  8
0
 10
1006.560243
 20
855.003324
 42
-0.081303
  0
VERTEX
  8
0
 10
1019.628798
 20
852.179423
 42
-0.077952
  0
VERTEX
  8
0
 10
1031.326725
 20
845.315186
 42
0.078921
  0
VERTEX
  8
0
 10
1034.405088
 20
843.516792
 42
0.097296
  0
VERTEX
  8
0
 10
1037.671560
 20
842.931747
 42
0.118553
  0
VERTEX
  8
0
 10
1040.440427
 20
843.646900
 42
0.165102
  0
VERTEX
  8
0
 10
1042.180610
 20
845.497051
 42
0.127993
  0
VERTEX
  8
0
 10
1042.769821
 20
848.870360
 42
0.080316
  0
VERTEX
  8
0
 10
1041.804789
 20
852.780518
 42
0.058910
  0
VERTEX
  8
0
 10
1039.246022
 20
857.250134
 42
0.028617
  0
VERTEX
  8
0
 10
1035.026365
 20
862.312661
 42
0.047066
  0
VERTEX
  8
0
 10
1027.626472
 20
868.864306
 42
0.057163
  0
VERTEX
  8
0
 10
1019.576453
 20
873.435117
 42
0.056440
  0
VERTEX
  8
0
 10
1010.614243
 20
876.104145
 42
0.044200
  0
VERTEX
  8
0
 10
1000.500000
 20
877.000000
 42
0.084838
  0
VERTEX
  8
0
 10
982.292572
 20
873.888223
 42
0.072770
  0
VERTEX
  8
0
 10
965.063886
 20
864.834819
 42
0.066933
  0
VERTEX
  8
0
 10
949.952910
 20
850.392485
 42
0.054778
  0
VERTEX
  8
0
 10
937.978752
 20
831.500000
 42
0.018651
  0
VERTEX
  8
0
 10
932.853187
 20
819.965553
 42
0.044035
  0
VERTEX
  8
0
 10
930.139209
 20
810.964612
 42
0.039258
  0
VERTEX
  8
0
 10
928.876527
 20
801.025423
 42
0.012281
  0
VERTEX
  8
0
 10
928.525965
 20
786.000000
 42
0.003513
  0
VERTEX
  8
0
 10
928.623204
 20
774.226636
 42
0.019428
  0
VERTEX
  8
0
 10
928.965965
 20
767.901360
 42
0.028486
  0
VERTEX
  8
0
 10
929.746563
 20
762.734544
 42
0.013617
  0
VERTEX
  8
0
 10
931.304955
 20
756.200652
 42
0.029580
  0
VERTEX
  8
0
 10
937.722620
 20
736.867782
 42
0.031260
  0
VERTEX
  8
0
 10
946.279254
 20
718.793485
 42
0.026983
  0
VERTEX
  8
0
 10
958.133123
 20
699.827626
 42
0.014320
  0
VERTEX
  8
0
 10
974.712058
 20
677.615985
 42
-0.001448
  0
VERTEX
  8
0
 10
1000.284746
 20
645.133867
 42
-0.007717
  0
VERTEX
  8
0
 10
1013.927488
 20
627.135836
 42
-0.012717
  0
VERTEX
  8
0
 10
1023.672820
 20
613.125185
 42
-0.009904
  0
VERTEX
  8
0
 10
1033.567813
 20
597.429939
 42
-0.049434
  0
VERTEX
  8
0
 10
1058.784026
 20
544.406378
 42
-0.049464
  0
VERTEX
  8
0
 10
1073.095209
 20
487.475198
 42
-0.047486
  0
VERTEX
  8
0
 10
1076.288303
 20
426.740089
 42
-0.039320
  0
VERTEX
  8
0
 10
1068.468418
 20
362.415461
 42
-0.021964
  0
VERTEX
  8
0
 10
1059.351245
 20
325.715753
 42
-0.021986
  0
VERTEX
  8
0
 10
1047.052078
 20
289.969721
 42
-0.022782
  0
VERTEX
  8
0
 10
1032.211896
 20
256.818936
 42
-0.029280
  0
VERTEX
  8
0
 10
1015.474467
 20
227.922656
 42
-0.008963
  0
VERTEX
  8
0
 10
1007.547730
 20
216.372710
 42
-0.014433
  0
VERTEX
  8
0
 10
1000.341245
 20
206.858758
 42
-0.014459
  0
VERTEX
  8
0
 10
992.607338
 20
197.788491
 42
-0.009038
  0
VERTEX
  8
0
 10
983.061219
 20
187.603497
 42
-0.038619
  0
VERTEX
  8
0
 10
952.235553
 20
160.431168
 42
-0.039328
  0
VERTEX
  8
0
 10
917.777103
 20
138.505631
 42
-0.039269
  0
VERTEX
  8
0
 10
880.260358
 20
122.219135
 42
-0.038262
  0
VERTEX
  8
0
 10
840.333122
 20
111.829024
 42
-0.012266
  0
VERTEX
  8
0
 10
832.276788
 20
110.582056
 42
-0.017718
  0
VERTEX
  8
0
 10
825.101609
 20
109.908506
 42
-0.011843
  0
VERTEX
  8
0
 10
816.046722
 20
109.596175
 42
-0.002610
  0
VERTEX
  8
0
 10
800.500000
 20
109.509525
 42
-0.002766
  0
VERTEX
  8
0
 10
782.550308
 20
109.602483
 42
-0.019976
  0
VERTEX
  8
0
 10
773.919719
 20
110.040054
 42
-0.041336
  0
VERTEX
  8
0
 10
769.237501
 20
110.859358
 42
-0.341113
  0
VERTEX
  8
0
 10
768.000000
 20
112.462211
 42
-0.122692
  0
VERTEX
  8
0
 10
768.229076
 20
113.381701
 42
-0.005793
  0
VERTEX
  8
0
 10
769.769414
 20
116.201871
 42
-0.009241
  0
VERTEX
  8
0
 10
771.715846
 20
119.524067
 42
-0.006489
  0
VERTEX
  8
0
 10
774.023538
 20
123.193159
 42
0.029476
  0
VERTEX
  8
0
 10
786.448572
 20
145.123137
 42
0.027712
  0
VERTEX
  8
0
 10
796.495439
 20
168.811071
 42
0.026534
  0
VERTEX
  8
0
 10
804.225362
 20
194.464201
 42
0.022405
  0
VERTEX
  8
0
 10
809.713744
 20
222.279269
 42
0.028173
  0
VERTEX
  8
0
 10
811.105352
 20
237.090505
 42
0.009621
  0
VERTEX
  8
0
 10
811.496302
 20
258.677489
 42
0.009775
  0
VERTEX
  8
0
 10
811.044522
 20
280.518707
 42
0.024041
  0
VERTEX
  8
0
 10
809.629632
 20
296.500000
 42
0.019555
  0
VERTEX
  8
0
 10
804.730384
 20
324.131543
 42
0.018018
  0
VERTEX
  8
0
 10
797.577967
 20
352.070375
 42
0.017751
  0
VERTEX
  8
0
 10
788.306144
 20
379.848763
 42
0.017563
  0
VERTEX
  8
0
 10
777.057429
 20
407.000000
 42
0.021173
  0
VERTEX
  8
0
 10
760.044989
 20
440.471889
 42
0.015344
  0
VERTEX
  8
0
 10
738.425028
 20
476.274250
 42
0.015316
  0
VERTEX
  8
0
 10
714.584503
 20
510.781983
 42
0.020710
  0
VERTEX
  8
0
 10
690.845202
 20
540.342107
 42
-0.001213
  0
VERTEX
  8
0
 10
681.286050
 20
551.338132
 42
-0.016119
  0
VERTEX
  8
0
 10
677.907728
 20
555.507713
 42
-0.045678
  0
VERTEX
  8
0
 10
676.426528
 20
557.883856
 42
-0.211193
  0
VERTEX
  8
0
 10
676.347691
 20
559.463685
 42
-0.124762
  0
VERTEX
  8
0
 10
676.920671
 20
560.275433
 42
-0.010803
  0
VERTEX
  8
0
 10
678.895239
 20
561.892881
 42
-0.013694
  0
VERTEX
  8
0
 10
681.378237
 20
563.731230
 42
-0.010205
  0
VERTEX
  8
0
 10
684.211714
 20
565.626419
 42
0.030775
  0
VERTEX
  8
0
 10
701.782964
 20
578.455070
 42
0.028513
  0
VERTEX
  8
0
 10
718.125660
 20
593.654883
 42
0.028924
  0
VERTEX
  8
0
 10
732.391346
 20
610.360752
 42
0.034445
  0
VERTEX
  8
0
 10
743.747675
 20
627.691278
 42
0.030885
  0
VERTEX
  8
0
 10
752.852276
 20
646.565079
 42
0.037098
  0
VERTEX
  8
0
 10
758.930657
 20
665.311177
 42
0.037293
  0
VERTEX
  8
0
 10
762.150155
 20
684.665314
 42
0.031787
  0
VERTEX
  8
0
 10
762.703422
 20
705.356579
 42
0.021164
  0
VERTEX
  8
0
 10
761.432496
 20
721.381913
 42
0.028086
  0
VERTEX
  8
0
 10
758.848981
 20
735.773759
 42
0.027980
  0
VERTEX
  8
0
 10
754.659281
 20
749.827905
 42
0.020760
  0
VERTEX
  8
0
 10
748.539514
 20
764.835926
 42
-0.020907
  0
VERTEX
  8
0
 10
744.530789
 20
774.675129
 42
-0.025335
  0
VERTEX
  8
0
 10
741.639478
 20
784.209982
 42
-0.015907
  0
VERTEX
  8
0
 10
738.889751
 20
796.988441
 42
-0.003355
  0
VERTEX
  8
0
 10
734.950559
 20
819.473577
 42
0.006007
  0
VERTEX
  8
0
 10
728.194014
 20
856.872277
 42
0.012387
  0
VERTEX
  8
0
 10
721.837691
 20
885.907174
 42
0.014834
  0
VERTEX
  8
0
 10
714.921699
 20
910.900533
 42
0.014729
  0
VERTEX
  8
0
 10
706.521047
 20
935.500000
 42
-0.013639
  0
VERTEX
  8
0
 10
703.333059
 20
944.769251
 42
-0.057754
  0
VERTEX
  8
0
 10
702.234282
 20
950.525941
 42
-0.088503
  0
VERTEX
  8
0
 10
702.706594
 20
955.080794
 42
-0.062455
  0
VERTEX
  8
0
 10
704.736977
 20
959.821930
 42
-0.031079
  0
VERTEX
  8
0
 10
713.621372
 20
973.047967
 42
-0.015593
  0
VERTEX
  8
0
 10
726.359140
 20
988.645130
 42
-0.015591
  0
VERTEX
  8
0
 10
740.175621
 20
1003.559991
 42
-0.028361
  0
VERTEX
  8
0
 10
752.487195
 20
1014.705369
 42
-0.050564
  0
VERTEX
  8
0
 10
793.562217
 20
1041.497629
 42
-0.048950
  0
VERTEX
  8
0
 10
839.620203
 20
1059.846238
 42
-0.048234
  0
VERTEX
  8
0
 10
889.021718
 20
1069.085799
 42
-0.046233
  0
SEQEND
  0
POLYLINE
  8
0
 66
1
 70
1
  0
VERTEX
  8
0
 10
365.193209
 20
549.823967
 42
-0.070345
  0
VERTEX
  8
0
 10
368.183836
 20
548.446771
 42
-0.048705
  0
VERTEX
  8
0
 10
371.108508
 20
546.132803
 42
-0.050087
  0
VERTEX
  8
0
 10
373.317700
 20
543.531296
 42
-0.152142
  0
VERTEX
  8
0
 10
374.000000
 20
541.340888
 42
-0.078763
  0
VERTEX
  8
0
 10
373.853284
 20
540.415292
 42
-0.007716
  0
VERTEX
  8
0
 10
373.118750
 20
538.269667
 42
-0.009610
  0
VERTEX
  8
0
 10
372.148881
 20
535.727642
 42
-0.007470
  0
VERTEX
  8
0
 10
371.000000
 20
533.000000
 42
0.013987
  0
VERTEX
  8
0
 10
369.851621
 20
530.171057
 42
0.014618
  0
VERTEX
  8
0
 10
368.881250
 20
527.323314
 42
0.014422
  0
VERTEX
  8
0
 10
368.187741
 20
524.820765
 42
0.060447
  0
VERTEX
  8
0
 10
368.000000
 20
523.273516
 42
-0.039539
  0
VERTEX
  8
0
 10
367.901674
 20
522.032058
 42
-0.029644
  0
VERTEX
  8
0
 10
367.605869
 20
520.692559
 42
-0.030291
  0
VERTEX
  8
0
 10
367.172996
 20
519.457775
 42
-0.058474
  0
VERTEX
  8
0
 10
366.658276
 20
518.547342
 42
-0.134522
  0
VERTEX
  8
0
 10
365.425067
 20
517.566336
 42
-0.076723
  0
VERTEX
  8
0
 10
363.567841
 20
517.089336
 42
-0.031127
  0
VERTEX
  8
0
 10
360.315795
 20
516.972141
 42
-0.003737
  0
VERTEX
  8
0
 10
353.133645
 20
517.214177
 42
-0.004585
  0
VERTEX
  8
0
 10
348.419193
 20
517.451664
 42
-0.007057
  0
VERTEX
  8
0
 10
344.345941
 20
517.752065
 42
-0.002878
  0
VERTEX
  8
0
 10
340.883328
 20
518.076723
 42
-0.173241
  0
VERTEX
  8
0
 10
340.325967
 20
518.340699
 42
-0.243132
  0
VERTEX
  8
0
 10
339.775277
 20
520.069423
 42
-0.008991
  0
VERTEX
  8
0
 10
341.086301
 20
527.013545
 42
-0.016857
  0
VERTEX
  8
0
 10
342.781389
 20
533.991852
 42
-0.037475
  0
VERTEX
  8
0
 10
344.639919
 20
539.132432
 42
-0.054113
  0
VERTEX
  8
0
 10
348.500567
 20
545.722195
 42
-0.113751
  0
VERTEX
  8
0
 10
352.989577
 20
549.551015
 42
-0.123367
  0
VERTEX
  8
0
 10
358.444521
 20
550.852281
 42
-0.070058
  0
SEQEND
  0
POLYLINE
  8
0
 66
1
 70
1
  0
VERTEX
  8
0
 10
368.170448
 20
421.961016
 42
-0.007743
  0
VERTEX
  8
0
 10
388.263472
 20
420.286226
 42
-0.010096
  0
VERTEX
  8
0
 10
406.584699
 20
418.098657
 42
-0.010859
  0
VERTEX
  8
0
 10
423.598906
 20
415.339871
 42
-0.012368
  0
VERTEX
  8
0
 10
439.749892
 20
411.944689
 42
-0.008363
  0
VERTEX
  8
0
 10
448.874494
 20
409.627829
 42
-0.036293
  0
VERTEX
  8
0
 10
454.139088
 20
407.777749
 42
-0.069065
  0
VERTEX
  8
0
 10
457.055816
 20
405.995886
 42
-0.224796
  0
VERTEX
  8
0
 10
458.000000
 20
404.001919
 42
-0.164245
  0
VERTEX
  8
0
 10
457.590808
 20
402.789843
 42
-0.010638
  0
VERTEX
  8
0
 10
455.242245
 20
399.840260
 42
-0.014031
  0
VERTEX
  8
0
 10
452.122613
 20
396.296105
 42
-0.008537
  0
VERTEX
  8
0
 10
448.250000
 20
392.277599
 42
0.019067
  0
VERTEX
  8
0
 10
441.038345
 20
384.471798
 42
0.032239
  0
VERTEX
  8
0
 10
435.699004
 20
377.349255
 42
0.036191
  0
VERTEX
  8
0
 10
431.754358
 20
370.238296
 42
0.034212
  0
VERTEX
  8
0
 10
428.791015
 20
362.500000
 42
0.049853
  0
VERTEX
  8
0
 10
426.805448
 20
352.587737
 42
0.048699
  0
VERTEX
  8
0
 10
426.797765
 20
342.398702
 42
0.052238
  0
VERTEX
  8
0
 10
428.667890
 20
333.217799
 42
0.090543
  0
VERTEX
  8
0
 10
432.292251
 20
326.355592
 42
-0.058431
  0
VERTEX
  8
0
 10
433.347637
 20
324.633393
 42
-0.041839
  0
VERTEX
  8
0
 10
434.121667
 20
322.509162
 42
-0.031554
  0
VERTEX
  8
0
 10
434.690525
 20
319.741470
 42
-0.013476
  0
VERTEX
  8
0
 10
435.115624
 20
315.984697
 42
0.031769
  0
VERTEX
  8
0
 10
436.004391
 20
310.073802
 42
0.045953
  0
VERTEX
  8
0
 10
437.587573
 20
305.037995
 42
0.042119
  0
VERTEX
  8
0
 10
440.179566
 20
300.066913
 42
0.021780
  0
VERTEX
  8
0
 10
444.188115
 20
294.311635
 42
0.000000
  0
VERTEX
  8
0
 10
448.148117
 20
289.123270
 42
0.000000
  0
VERTEX
  8
0
 10
446.115974
 20
284.529273
 42
-0.032107
  0
VERTEX
  8
0
 10
443.076221
 20
278.699913
 42
-0.012430
  0
VERTEX
  8
0
 10
438.160325
 20
271.025628
 42
-0.012481
  0
VERTEX
  8
0
 10
432.563855
 20
263.178707
 42
-0.018522
  0
VERTEX
  8
0
 10
427.245128
 20
256.622100
 42
-0.032446
  0
VERTEX
  8
0
 10
415.830667
 20
245.162891
 42
-0.023551
  0
VERTEX
  8
0
 10
401.775001
 20
233.903347
 42
-0.022166
  0
VERTEX
  8
0
 10
385.710184
 20
223.286708
 42
-0.020092
  0
VERTEX
  8
0
 10
368.242786
 20
213.756209
 42
-0.012772
  0
VERTEX
  8
0
 10
355.331311
 20
207.776012
 42
-0.093207
  0
VERTEX
  8
0
 10
348.707423
 20
206.278554
 42
-0.108387
  0
VERTEX
  8
0
 10
342.418627
 20
207.419516
 42
-0.019948
  0
VERTEX
  8
0
 10
331.661615
 20
212.422045
 42
-0.020655
  0
VERTEX
  8
0
 10
315.302362
 20
221.712684
 42
-0.018827
  0
VERTEX
  8
0
 10
299.237290
 20
232.596297
 42
-0.019561
  0
VERTEX
  8
0
 10
284.884785
 20
244.018868
 42
-0.031892
  0
VERTEX
  8
0
 10
273.771130
 20
254.905763
 42
-0.019213
  0
VERTEX
  8
0
 10
266.354569
 20
263.827721
 42
-0.017844
  0
VERTEX
  8
0
 10
259.450570
 20
273.510400
 42
-0.018646
  0
VERTEX
  8
0
 10
253.775636
 20
282.840737
 42
-0.038576
  0
VERTEX
  8
0
 10
250.205482
 20
290.583469
 42
-0.014204
  0
VERTEX
  8
0
 10
249.220800
 20
293.491176
 42
-0.092794
  0
VERTEX
  8
0
 10
249.047600
 20
295.016595
 42
-0.102019
  0
VERTEX
  8
0
 10
249.449061
 20
296.437639
 42
-0.018848
  0
VERTEX
  8
0
 10
250.799237
 20
298.815793
 42
0.010842
  0
VERTEX
  8
0
 10
251.894867
 20
300.675612
 42
0.004067
  0
VERTEX
  8
0
 10
253.352204
 20
303.327139
 42
0.004027
  0
VERTEX
  8
0
 10
254.893055
 20
306.241392
 42
0.004879
  0
VERTEX
  8
0
 10
256.289321
 20
309.000000
 42
0.017570
  0
VERTEX
  8
0
 10
258.090511
 20
312.994040
 42
0.047050
  0
VERTEX
  8
0
 10
258.995423
 20
315.977474
 42
0.039508
  0
VERTEX
  8
0
 10
259.408510
 20
319.360958
 42
0.009566
  0
VERTEX
  8
0
 10
259.540389
 20
325.000000
 42
-0.009911
  0
VERTEX
  8
0
 10
259.655800
 20
329.793492
 42
-0.024343
  0
VERTEX
  8
0
 10
259.981461
 20
333.301518
 42
-0.032352
  0
VERTEX
  8
0
 10
260.560183
 20
336.072050
 42
-0.042172
  0
VERTEX
  8
0
 10
261.459956
 20
338.500000
 42
0.042238
  0
VERTEX
  8
0
 10
262.358374
 20
340.925272
 42
0.032006
  0
VERTEX
  8
0
 10
262.940021
 20
343.703871
 42
0.024164
  0
VERTEX
  8
0
 10
263.271544
 20
347.218695
 42
0.009964
  0
VERTEX
  8
0
 10
263.394924
 20
352.000000
 42
0.047782
  0
VERTEX
  8
0
 10
262.449411
 20
362.522136
 42
0.059736
  0
VERTEX
  8
0
 10
259.512253
 20
371.869930
 42
0.049224
  0
VERTEX
  8
0
 10
253.938644
 20
381.556325
 42
0.021188
  0
VERTEX
  8
0
 10
244.756543
 20
393.317293
 42
-0.016943
  0
VERTEX
  8
0
 10
239.470551
 20
399.970686
 42
-0.062289
  0
VERTEX
  8
0
 10
236.836837
 20
404.645426
 42
-0.105269
  0
VERTEX
  8
0
 10
236.155391
 20
408.414135
 42
-0.119902
  0
VERTEX
  8
0
 10
237.130076
 20
411.942151
 42
-0.079323
  0
VERTEX
  8
0
 10
238.176669
 20
413.272654
 42
-0.065901
  0
VERTEX
  8
0
 10
239.649850
 20
414.311843
 42
-0.044663
  0
VERTEX
  8
0
 10
241.830376
 20
415.217005
 42
-0.014593
  0
VERTEX
  8
0
 10
245.184653
 20
416.163464
 42
-0.025313
  0
VERTEX
  8
0
 10
252.158860
 20
417.542507
 42
-0.005537
  0
VERTEX
  8
0
 10
264.289200
 20
419.171946
 42
-0.005827
  0
VERTEX
  8
0
 10
278.198402
 20
420.719435
 42
-0.006007
  0
VERTEX
  8
0
 10
292.000000
 20
421.925066
 42
-0.014278
  0
VERTEX
  8
0
 10
306.940065
 20
422.621257
 42
-0.004385
  0
VERTEX
  8
0
 10
329.516798
 20
422.829901
 42
-0.004464
  0
VERTEX
  8
0
 10
352.273504
 20
422.637484
 42
-0.012573
  0
SEQEND
  0
POLYLINE
  8
0
 66
1
 70
1
  0
VERTEX
  8
0
 10
141.011189
 20
307.649824
 42
0.037165
  0
VERTEX
  8
0
 10
154.013974
 20
295.929085
 42
0.046611
  0
VERTEX
  8
0
 10
167.706218
 20
287.227192
 42
0.048322
  0
VERTEX
  8
0
 10
182.343409
 20
281.441643
 42
0.045147
  0
VERTEX
  8
0
 10
198.157292
 20
278.406619
 42
0.035438
  0
VERTEX
  8
0
 10
204.219844
 20
278.233568
 42
0.018042
  0
VERTEX
  8
0
 10
211.823732
 20
278.830871
 42
0.018022
  0
VERTEX
  8
0
 10
219.309185
 20
279.966108
 42
0.038177
  0
VERTEX
  8
0
 10
224.969933
 20
281.489392
 42
-0.057792
  0
VERTEX
  8
0
 10
228.829401
 20
282.367572
 42
-0.156512
  0
VERTEX
  8
0
 10
231.547498
 20
281.810269
 42
-0.111826
  0
VERTEX
  8
0
 10
233.989929
 20
279.600342
 42
-0.022497
  0
VERTEX
  8
0
 10
237.161666
 20
274.625959
 42
0.038710
  0
VERTEX
  8
0
 10
251.106352
 20
254.243687
 42
0.034517
  0
VERTEX
  8
0
 10
268.531546
 20
235.403558
 42
0.032433
  0
VERTEX
  8
0
 10
289.488419
 20
218.087855
 42
0.026265
  0
VERTEX
  8
0
 10
314.000000
 20
202.266352
 42
0.017104
  0
VERTEX
  8
0
 10
329.295402
 20
194.177381
 42
0.051718
  0
VERTEX
  8
0
 10
340.356382
 20
190.153464
 42
0.073235
  0
VERTEX
  8
0
 10
349.665735
 20
189.225469
 42
0.070015
  0
VERTEX
  8
0
 10
359.000000
 20
190.988283
 42
0.029825
  0
VERTEX
  8
0
 10
368.361970
 20
194.793843
 42
0.009113
  0
VERTEX
  8
0
 10
382.035380
 20
201.635675
 42
0.009475
  0
VERTEX
  8
0
 10
396.021201
 20
209.296567
 42
0.017795
  0
VERTEX
  8
0
 10
406.967538
 20
216.093342
 42
0.023019
  0
VERTEX
  8
0
 10
422.303147
 20
227.446540
 42
0.026220
  0
VERTEX
  8
0
 10
435.846277
 20
239.707045
 42
0.026657
  0
VERTEX
  8
0
 10
447.838544
 20
253.125397
 42
0.025466
  0
VERTEX
  8
0
 10
458.531842
 20
267.943146
 42
-0.009456
  0
VERTEX
  8
0
 10
460.379114
 20
270.683675
 42
-0.011994
  0
VERTEX
  8
0
 10
462.192243
 20
273.139342
 42
-0.010081
  0
VERTEX
  8
0
 10
463.790221
 20
275.114814
 42
-0.090314
  0
VERTEX
  8
0
 10
464.646571
 20
275.822087
 42
-0.125033
  0
VERTEX
  8
0
 10
465.689623
 20
276.101160
 42
-0.035294
  0
VERTEX
  8
0
 10
467.382746
 20
276.003012
 42
-0.028652
  0
VERTEX
  8
0
 10
469.578394
 20
275.590412
 42
-0.014674
  0
VERTEX
  8
0
 10
472.278244
 20
274.836269
 42
0.023264
  0
VERTEX
  8
0
 10
478.935751
 20
273.099320
 42
0.011991
  0
VERTEX
  8
0
 10
487.402313
 20
271.517427
 42
0.011918
  0
VERTEX
  8
0
 10
495.784355
 20
270.362753
 42
0.028092
  0
VERTEX
  8
0
 10
502.083333
 20
270.004021
 42
-0.007651
  0
VERTEX
  8
0
 10
504.255974
 20
269.969210
 42
-0.011274
  0
VERTEX
  8
0
 10
506.161270
 20
269.866473
 42
-0.006729
  0
VERTEX
  8
0
 10
507.741666
 20
269.724052
 42
-0.172188
  0
VERTEX
  8
0
 10
508.125247
 20
269.541420
 42
-0.307323
  0
VERTEX
  8
0
 10
508.202772
 20
269.136294
 42
-0.001949
  0
VERTEX
  8
0
 10
506.657103
 20
265.591151
 42
-0.006802
  0
VERTEX
  8
0
 10
504.789184
 20
261.503690
 42
-0.004178
  0
VERTEX
  8
0
 10
502.483349
 20
256.737658
 42
0.020807
  0
VERTEX
  8
0
 10
496.904741
 20
244.156349
 42
0.039254
  0
VERTEX
  8
0
 10
493.654112
 20
233.545807
 42
0.037648
  0
VERTEX
  8
0
 10
492.023790
 20
222.266956
 42
0.017579
  0
VERTEX
  8
0
 10
491.534245
 20
207.500000
 42
0.013327
  0
VERTEX
  8
0
 10
491.886793
 20
195.205389
 42
0.029832
  0
VERTEX
  8
0
 10
492.958377
 20
185.925599
 42
0.032881
  0
VERTEX
  8
0
 10
495.045710
 20
177.408961
 42
0.019969
  0
VERTEX
  8
0
 10
498.564154
 20
167.649838
 42
-0.022490
  0
VERTEX
  8
0
 10
500.070461
 20
163.404868
 42
-0.134837
  0
VERTEX
  8
0
 10
500.135384
 20
161.083068
 42
-0.209188
  0
VERTEX
  8
0
 10
499.002356
 20
159.600448
 42
-0.065074
  0
VERTEX
  8
0
 10
496.335831
 20
158.548152
 42
0.035723
  0
VERTEX
  8
0
 10
494.857104
 20
158.062511
 42
0.005681
  0
VERTEX
  8
0
 10
492.046665
 20
156.873949
 42
0.006271
  0
VERTEX
  8
0
 10
488.763166
 20
155.391838
 42
0.005453
  0
VERTEX
  8
0
 10
485.360388
 20
153.758800
 42
0.048666
  0
VERTEX
  8
0
 10
471.258234
 20
145.003467
 42
0.054886
  0
VERTEX
  8
0
 10
459.731771
 20
133.992552
 42
0.058343
  0
VERTEX
  8
0
 10
451.450041
 20
121.408396
 42
0.070198
  0
VERTEX
  8
0
 10
446.927128
 20
108.000000
 42
-0.003838
  0
VERTEX
  8
0
 10
445.390790
 20
100.132254
 42
-0.043288
  0
VERTEX
  8
0
 10
444.491494
 20
97.085801
 42
-0.107319
  0
VERTEX
  8
0
 10
443.345512
 20
95.364521
 42
-0.075150
  0
VERTEX
  8
0
 10
441.442325
 20
94.007038
 42
-0.090535
  0
VERTEX
  8
0
 10
438.776252
 20
93.214411
 42
-0.015370
  0
VERTEX
  8
0
 10
433.465767
 20
92.801151
 42
-0.009799
  0
VERTEX
  8
0
 10
424.960904
 20
92.568674
 42
-0.001872
  0
VERTEX
  8
0
 10
409.500000
 20
92.507038
 42
-0.011454
  0
VERTEX
  8
0
 10
381.465591
 20
93.142501
 42
-0.023225
  0
VERTEX
  8
0
 10
359.501810
 20
95.169135
 42
-0.023424
  0
VERTEX
  8
0
 10
337.939856
 20
99.210737
 42
-0.011862
  0
VERTEX
  8
0
 10
311.207343
 20
106.203561
 42
0.046130
  0
VERTEX
  8
0
 10
307.824147
 20
106.845031
 42
0.128105
  0
VERTEX
  8
0
 10
305.453431
 20
106.463335
 42
0.166918
  0
VERTEX
  8
0
 10
303.945980
 20
105.072334
 42
0.094194
  0
VERTEX
  8
0
 10
303.186042
 20
102.674674
 42
0.094221
  0
VERTEX
  8
0
 10
303.291155
 20
101.148973
 42
0.065474
  0
VERTEX
  8
0
 10
303.945562
 20
99.545270
 42
0.043747
  0
VERTEX
  8
0
 10
305.267092
 20
97.636769
 42
0.014738
  0
VERTEX
  8
0
 10
307.507515
 20
95.095420
 42
0.000000
  0
VERTEX
  8
0
 10
312.142947
 20
90.139768
 42
0.000000
  0
VERTEX
  8
0
 10
309.821473
 20
88.619681
 42
-0.059567
  0
VERTEX
  8
0
 10
297.520025
 20
82.513514
 42
-0.015547
  0
VERTEX
  8
0
 10
276.482683
 20
75.759323
 42
-0.015991
  0
VERTEX
  8
0
 10
252.539744
 20
69.707095
 42
-0.018768
  0
VERTEX
  8
0
 10
229.500000
 20
65.560265
 42
-0.015548
  0
VERTEX
  8
0
 10
204.984927
 20
62.866231
 42
-0.021449
  0
VERTEX
  8
0
 10
182.856053
 20
62.081023
 42
-0.018018
  0
VERTEX
  8
0
 10
164.913665
 20
62.861221
 42
-0.203996
  0
VERTEX
  8
0
 10
158.750000
 20
66.085458
 42
-0.167097
  0
VERTEX
  8
0
 10
156.986661
 20
70.838802
 42
-0.056190
  0
VERTEX
  8
0
 10
157.647130
 20
78.310551
 42
-0.050021
  0
VERTEX
  8
0
 10
160.275471
 20
86.795641
 42
-0.046337
  0
VERTEX
  8
0
 10
164.588539
 20
94.824636
 42
0.030178
  0
VERTEX
  8
0
 10
166.798143
 20
98.637478
 42
0.089163
  0
VERTEX
  8
0
 10
167.651942
 20
101.529970
 42
0.143569
  0
VERTEX
  8
0
 10
167.262040
 20
103.722156
 42
0.138282
  0
VERTEX
  8
0
 10
165.747074
 20
105.394603
 42
0.217915
  0
VERTEX
  8
0
 10
163.307896
 20
105.715536
 42
0.049595
  0
VERTEX
  8
0
 10
159.366561
 20
104.061197
 42
0.045677
  0
VERTEX
  8
0
 10
155.072060
 20
101.199404
 42
0.043929
  0
VERTEX
  8
0
 10
151.307065
 20
97.571174
 42
0.043052
  0
VERTEX
  8
0
 10
147.892545
 20
92.888478
 42
0.023105
  0
VERTEX
  8
0
 10
144.475038
 20
86.599777
 42
0.023017
  0
VERTEX
  8
0
 10
141.714018
 20
80.169330
 42
0.054045
  0
VERTEX
  8
0
 10
140.414627
 20
75.113288
 42
-0.015716
  0
VERTEX
  8
0
 10
140.086150
 20
73.255473
 42
-0.017495
  0
VERTEX
  8
0
 10
139.650954
 20
71.487966
 42
-0.017065
  0
VERTEX
  8
0
 10
139.178460
 20
70.015626
 42
-0.082254
  0
VERTEX
  8
0
 10
138.751411
 20
69.250000
 42
-0.286523
  0
VERTEX
  8
0
 10
134.261788
 20
67.663026
 42
-0.052214
  0
VERTEX
  8
0
 10
125.509327
 20
70.589365
 42
-0.051009
  0
VERTEX
  8
0
 10
116.515319
 20
75.846127
 42
-0.089069
  0
VERTEX
  8
0
 10
110.571297
 20
82.071627
 42
-0.050618
  0
VERTEX
  8
0
 10
107.868070
 20
87.220536
 42
-0.044996
  0
VERTEX
  8
0
 10
106.124276
 20
93.013868
 42
-0.045055
  0
VERTEX
  8
0
 10
105.446628
 20
99.017621
 42
-0.051091
  0
VERTEX
  8
0
 10
105.908022
 20
104.791066
 42
-0.069504
  0
VERTEX
  8
0
 10
109.974254
 20
117.035626
 42
-0.071965
  0
VERTEX
  8
0
 10
117.206430
 20
127.536995
 42
-0.067912
  0
VERTEX
  8
0
 10
127.522287
 20
136.023399
 42
-0.052498
  0
VERTEX
  8
0
 10
140.657946
 20
142.334469
 42
-0.031071
  0
VERTEX
  8
0
 10
148.001157
 20
144.452940
 42
-0.014989
  0
VERTEX
  8
0
 10
157.620553
 20
146.290671
 42
-0.014949
  0
VERTEX
  8
0
 10
167.594062
 20
147.583392
 42
-0.024255
  0
VERTEX
  8
0
 10
176.128338
 20
148.014742
 42
0.015319
  0
VERTEX
  8
0
 10
179.133871
 20
148.112866
 42
0.016249
  0
VERTEX
  8
0
 10
182.068949
 20
148.394817
 42
0.016051
  0
VERTEX
  8
0
 10
184.571713
 20
148.799644
 42
0.068577
  0
VERTEX
  8
0
 10
186.000000
 20
149.287913
 42
0.116589
  0
VERTEX
  8
0
 10
187.965516
 20
150.938315
 42
0.133466
  0
VERTEX
  8
0
 10
188.861530
 20
153.215759
 42
0.147508
  0
VERTEX
  8
0
 10
188.444296
 20
155.464705
 42
0.151917
  0
VERTEX
  8
0
 10
186.856060
 20
157.077034
 42
0.049660
  0
VERTEX
  8
0
 10
183.174208
 20
158.599774
 42
0.020347
  0
VERTEX
  8
0
 10
177.930759
 20
159.951109
 42
0.017258
  0
VERTEX
  8
0
 10
171.386900
 20
161.121810
 42
0.010480
  0
VERTEX
  8
0
 10
163.581944
 20
162.075248
 42
-0.005744
  0
VERTEX
  8
0
 10
159.219931
 20
162.566224
 42
-0.006966
  0
VERTEX
  8
0
 10
155.142956
 20
163.130393
 42
-0.005981
  0
VERTEX
  8
0
 10
151.731382
 20
163.692862
 42
-0.047024
  0
VERTEX
  8
0
 10
150.185215
 20
164.119681
 42
-0.095807
  0
VERTEX
  8
0
 10
146.369270
 20
166.482170
 42
-0.011437
  0
VERTEX
  8
0
 10
139.193613
 20
173.415944
 42
-0.014646
  0
VERTEX
  8
0
 10
132.129260
 20
180.993284
 42
-0.033493
  0
VERTEX
  8
0
 10
127.378631
 20
187.189203
 42
-0.032415
  0
VERTEX
  8
0
 10
120.477116
 20
199.177288
 42
-0.031676
  0
VERTEX
  8
0
 10
115.122986
 20
212.047881
 42
-0.030575
  0
VERTEX
  8
0
 10
111.285883
 20
225.925400
 42
-0.026081
  0
VERTEX
  8
0
 10
108.919523
 20
240.924556
 42
-0.034817
  0
VERTEX
  8
0
 10
108.401830
 20
255.829477
 42
-0.031097
  0
VERTEX
  8
0
 10
109.902841
 20
271.245399
 42
-0.031954
  0
VERTEX
  8
0
 10
113.216251
 20
285.848363
 42
-0.044616
  0
VERTEX
  8
0
 10
118.133190
 20
298.296586
 42
-0.023246
  0
VERTEX
  8
0
 10
121.227371
 20
303.804470
 42
-0.013133
  0
VERTEX
  8
0
 10
125.454914
 20
310.192975
 42
-0.005721
  0
VERTEX
  8
0
 10
129.830212
 20
316.292020
 42
-0.238648
  0
VERTEX
  8
0
 10
131.229049
 20
317.000000
 42
-0.190393
  0
VERTEX
  8
0
 10
131.775425
 20
316.784123
 42
-0.002565
  0
VERTEX
  8
0
 10
134.450419
 20
314.253386
 42
-0.006861
  0
VERTEX
  8
0
 10
137.524094
 20
311.233649
 42
-0.004404
  0
SEQEND
  0
POLYLINE
  8
0
 66
1
 70
1
  0
VERTEX
  8
0
 10
211.000000
 20
819.617776
 42
0.086694
  0
VERTEX
  8
0
 10
193.819702
 20
811.459562
 42
0.069298
  0
VERTEX
  8
0
 10
178.865406
 20
797.397361
 42
0.065124
  0
VERTEX
  8
0
 10
167.552298
 20
778.849387
 42
0.060656
  0
VERTEX
  8
0
 10
161.050980
 20
757.566341
 42
0.031724
  0
VERTEX
  8
0
 10
160.233587
 20
750.290639
 42
0.015503
  0
VERTEX
  8
0
 10
160.070666
 20
740.952539
 42
0.015493
  0
VERTEX
  8
0
 10
160.485316
 20
731.649607
 42
0.032694
  0
VERTEX
  8
0
 10
161.499352
 20
724.500000
 42
0.058201
  0
VERTEX
  8
0
 10
165.801755
 20
711.626129
 42
0.051830
  0
VERTEX
  8
0
 10
173.087074
 20
699.537324
 42
0.052912
  0
VERTEX
  8
0
 10
182.515645
 20
689.450063
 42
0.067614
  0
VERTEX
  8
0
 10
193.157545
 20
682.502316
 42
0.036615
  0
VERTEX
  8
0
 10
202.926911
 20
678.711256
 42
0.042638
  0
VERTEX
  8
0
 10
212.661908
 20
676.618545
 42
0.043294
  0
VERTEX
  8
0
 10
222.480905
 20
676.225706
 42
0.039901
  0
VERTEX
  8
0
 10
232.500000
 20
677.497952
 42
0.077780
  0
VERTEX
  8
0
 10
248.226554
 20
683.441041
 42
0.068571
  0
VERTEX
  8
0
 10
262.158311
 20
694.108892
 42
0.066000
  0
VERTEX
  8
0
 10
273.125891
 20
708.578875
 42
0.062829
  0
VERTEX
  8
0
 10
280.166395
 20
725.645098
 42
0.042405
  0
VERTEX
  8
0
 10
281.885543
 20
735.038279
 42
0.024275
  0
VERTEX
  8
0
 10
282.435620
 20
746.557396
 42
0.024064
  0
VERTEX
  8
0
 10
281.859495
 20
758.319261
 42
0.035569
  0
VERTEX
  8
0
 10
280.131074
 20
768.500000
 42
0.051662
  0
VERTEX
  8
0
 10
273.919509
 20
785.920601
 42
0.058651
  0
VERTEX
  8
0
 10
264.462720
 20
800.907291
 42
0.063619
  0
VERTEX
  8
0
 10
252.601758
 20
812.263273
 42
0.084453
  0
VERTEX
  8
0
 10
239.294598
 20
818.990727
 42
0.044437
  0
VERTEX
  8
0
 10
232.926140
 20
820.353166
 42
0.024952
  0
VERTEX
  8
0
 10
225.028476
 20
820.923185
 42
0.024984
  0
VERTEX
  8
0
 10
217.182956
 20
820.705027
 42
0.048192
  0
SEQEND
  0
POLYLINE
  8
0
 66
1
 70
1
  0
VERTEX
  8
0
 10
237.831617
 20
796.396619
 42
-0.145843
  0
VERTEX
  8
0
 10
247.677654
 20
787.188216
 42
-0.133517
  0
VERTEX
  8
0
 10
251.304421
 20
773.757328
 42
-0.132489
  0
VERTEX
  8
0
 10
247.638955
 20
760.259660
 42
-0.142741
  0
VERTEX
  8
0
 10
237.753199
 20
750.889725
 42
-0.109599
  0
VERTEX
  8
0
 10
227.749036
 20
748.263478
 42
-0.112964
  0
VERTEX
  8
0
 10
217.691673
 20
750.162039
 42
-0.112480
  0
VERTEX
  8
0
 10
209.429146
 20
756.257137
 42
-0.107918
  0
VERTEX
  8
0
 10
204.470132
 20
765.417014
 42
-0.132891
  0
VERTEX
  8
0
 10
204.218174
 20
780.265372
 42
-0.144783
  0
VERTEX
  8
0
 10
211.559955
 20
792.658067
 42
-0.153131
  0
VERTEX
  8
0
 10
224.090643
 20
798.626202
 42
-0.151876
  0
SEQEND
  0
POLYLINE
  8
0
 66
1
 70
1
  0
VERTEX
  8
0
 10
193.568108
 20
734.535989
 42
-0.140775
  0
VERTEX
  8
0
 10
197.507794
 20
731.379386
 42
-0.126424
  0
VERTEX
  8
0
 10
199.375241
 20
726.478808
 42
-0.128824
  0
VERTEX
  8
0
 10
198.634260
 20
721.356862
 42
-0.148796
  0
VERTEX
  8
0
 10
195.484663
 20
717.581908
 42
-0.136378
  0
VERTEX
  8
0
 10
190.551904
 20
716.007485
 42
-0.126331
  0
VERTEX
  8
0
 10
185.352730
 20
717.134462
 42
-0.129982
  0
VERTEX
  8
0
 10
181.443960
 20
720.585638
 42
-0.148318
  0
VERTEX
  8
0
 10
180.000000
 20
725.346352
 42
-0.095388
  0
VERTEX
  8
0
 10
180.593124
 20
728.427081
 42
-0.062937
  0
VERTEX
  8
0
 10
182.346723
 20
731.590943
 42
-0.064603
  0
VERTEX
  8
0
 10
184.754533
 20
734.120007
 42
-0.123049
  0
VERTEX
  8
0
 10
187.284134
 20
735.298740
 42
0.003289
  0
VERTEX
  8
0
 10
188.153494
 20
735.472951
 42
0.004530
  0
VERTEX
  8
0
 10
188.931962
 20
735.641651
 42
0.002924
  0
VERTEX
  8
0
 10
189.582880
 20
735.792904
 42
0.053942
  0
VERTEX
  8
0
 10
189.782119
 20
735.863818
 42
-0.195120
  0
VERTEX
  8
0
 10
189.993469
 20
735.877432
 42
-0.004061
  0
VERTEX
  8
0
 10
191.010627
 20
735.529943
 42
-0.008849
  0
VERTEX
  8
0
 10
192.204821
 20
735.087228
 42
-0.005766
  0
SEQEND
  0
POLYLINE
  8
0
 66
1
 70
1
  0
VERTEX
  8
0
 10
549.500000
 20
818.983408
 42
0.070653
  0
VERTEX
  8
0
 10
536.197290
 20
814.309804
 42
0.058360
  0
VERTEX
  8
0
 10
523.744571
 20
805.872141
 42
0.055659
  0
VERTEX
  8
0
 10
513.048968
 20
794.333183
 42
0.052695
  0
VERTEX
  8
0
 10
504.933592
 20
780.513813
 42
0.022556
  0
VERTEX
  8
0
 10
501.757011
 20
772.574337
 42
0.027124
  0
VERTEX
  8
0
 10
499.525450
 20
764.850355
 42
0.026169
  0
VERTEX
  8
0
 10
498.087299
 20
756.701907
 42
0.018696
  0
VERTEX
  8
0
 10
497.301155
 20
747.473412
 42
0.022786
  0
VERTEX
  8
0
 10
497.278890
 20
736.502291
 42
0.036565
  0
VERTEX
  8
0
 10
498.367500
 20
727.211025
 42
0.037923
  0
VERTEX
  8
0
 10
500.757795
 20
718.421950
 42
0.026999
  0
VERTEX
  8
0
 10
504.689606
 20
709.000000
 42
0.014370
  0
VERTEX
  8
0
 10
507.437183
 20
703.697263
 42
0.030010
  0
VERTEX
  8
0
 10
509.933164
 20
699.775598
 42
0.028780
  0
VERTEX
  8
0
 10
512.947721
 20
696.080705
 42
0.012189
  0
VERTEX
  8
0
 10
517.385323
 20
691.469944
 42
0.039929
  0
VERTEX
  8
0
 10
526.582278
 20
683.718086
 42
0.056053
  0
VERTEX
  8
0
 10
535.952586
 20
678.494690
 42
0.057406
  0
VERTEX
  8
0
 10
546.071352
 20
675.564571
 42
0.044674
  0
VERTEX
  8
0
 10
557.500000
 20
674.672617
 42
0.085255
  0
VERTEX
  8
0
 10
577.644501
 20
678.369542
 42
0.087592
  0
VERTEX
  8
0
 10
595.190502
 20
688.563900
 42
0.084241
  0
VERTEX
  8
0
 10
608.697300
 20
704.546605
 42
0.071588
  0
VERTEX
  8
0
 10
617.118965
 20
724.998589
 42
0.044107
  0
VERTEX
  8
0
 10
618.596699
 20
734.183003
 42
0.023611
  0
VERTEX
  8
0
 10
618.874474
 20
745.678872
 42
0.023419
  0
VERTEX
  8
0
 10
618.051337
 20
757.438435
 42
0.035574
  0
VERTEX
  8
0
 10
616.138941
 20
767.500000
 42
0.038548
  0
VERTEX
  8
0
 10
611.901762
 20
779.632336
 42
0.036112
  0
VERTEX
  8
0
 10
605.775162
 20
791.250978
 42
0.037623
  0
VERTEX
  8
0
 10
598.385184
 20
801.330155
 42
0.055291
  0
VERTEX
  8
0
 10
590.373271
 20
808.830911
 42
0.049254
  0
VERTEX
  8
0
 10
580.849065
 20
814.586198
 42
0.050460
  0
VERTEX
  8
0
 10
570.458919
 20
818.311890
 42
0.051833
  0
VERTEX
  8
0
 10
559.805228
 20
819.812023
 42
0.058341
  0
SEQEND
  0
POLYLINE
  8
0
 66
1
 70
1
  0
VERTEX
  8
0
 10
567.097007
 20
793.389568
 42
-0.150325
  0
VERTEX
  8
0
 10
575.977128
 20
781.597799
 42
-0.141793
  0
VERTEX
  8
0
 10
576.961424
 20
766.555929
 42
-0.142408
  0
VERTEX
  8
0
 10
569.765050
 20
753.360415
 42
-0.151943
  0
VERTEX
  8
0
 10
556.787810
 20
746.488016
 42
-0.079318
  0
VERTEX
  8
0
 10
552.643340
 20
746.375500
 42
-0.042701
  0
VERTEX
  8
0
 10
547.639243
 20
747.476205
 42
-0.041627
  0
VERTEX
  8
0
 10
542.675728
 20
749.487928
 42
-0.055950
  0
VERTEX
  8
0
 10
538.621000
 20
752.144784
 42
-0.061315
  0
VERTEX
  8
0
 10
535.024454
 20
755.955593
 42
-0.054783
  0
VERTEX
  8
0
 10
532.298553
 20
760.666677
 42
-0.053054
  0
VERTEX
  8
0
 10
530.592567
 20
766.009321
 42
-0.050416
  0
VERTEX
  8
0
 10
530.009769
 20
771.684900
 42
-0.054834
  0
VERTEX
  8
0
 10
530.781057
 20
778.800038
 42
-0.072237
  0
VERTEX
  8
0
 10
533.088205
 20
784.896896
 42
-0.073802
  0
VERTEX
  8
0
 10
536.986171
 20
789.989214
 42
-0.060418
  0
VERTEX
  8
0
 10
542.451888
 20
794.139526
 42
-0.021625
  0
VERTEX
  8
0
 10
545.563184
 20
795.781179
 42
-0.059192
  0
VERTEX
  8
0
 10
547.915708
 20
796.571307
 42
-0.049481
  0
VERTEX
  8
0
 10
550.617910
 20
796.861276
 42
-0.011718
  0
VERTEX
  8
0
 10
555.155927
 20
796.791309
 42
-0.012318
  0
VERTEX
  8
0
 10
559.548923
 20
796.512038
 42
-0.047386
  0
VERTEX
  8
0
 10
562.236961
 20
796.015051
 42
-0.059608
  0
VERTEX
  8
0
 10
564.462523
 20
795.083004
 42
-0.027816
  0
SEQEND
  0
POLYLINE
  8
0
 66
1
 70
1
  0
VERTEX
  8
0
 10
595.477997
 20
730.750000
 42
-0.175924
  0
VERTEX
  8
0
 10
598.595336
 20
725.139560
 42
-0.164992
  0
VERTEX
  8
0
 10
597.495388
 20
718.660425
 42
-0.169024
  0
VERTEX
  8
0
 10
592.718599
 20
714.292560
 42
-0.183158
  0
VERTEX
  8
0
 10
586.441870
 20
714.019185
 42
-0.066920
  0
VERTEX
  8
0
 10
583.588979
 20
715.405799
 42
-0.094770
  0
VERTEX
  8
0
 10
581.577209
 20
717.376290
 42
-0.092084
  0
VERTEX
  8
0
 10
580.397477
 20
719.995925
 42
-0.059944
  0
VERTEX
  8
0
 10
580.000000
 20
723.299429
 42
-0.141092
  0
VERTEX
  8
0
 10
581.484673
 20
728.456042
 42
-0.141304
  0
VERTEX
  8
0
 10
585.483431
 20
732.030125
 42
-0.144314
  0
VERTEX
  8
0
 10
590.702004
 20
732.882901
 42
-0.148755
  0
SEQEND
  0
POLYLINE
  8
0
 66
1
 70
1
  0
VERTEX
  8
0
 10
365.000000
 20
713.038421
 42
0.024273
  0
VERTEX
  8
0
 10
353.407106
 20
709.959859
 42
0.057631
  0
VERTEX
  8
0
 10
345.282915
 20
706.300247
 42
0.080934
  0
VERTEX
  8
0
 10
339.990967
 20
701.843932
 42
0.112056
  0
VERTEX
  8
0
 10
337.101524
 20
696.377031
 42
0.148443
  0
VERTEX
  8
0
 10
337.366129
 20
688.032803
 42
0.071977
  0
VERTEX
  8
0
 10
342.248234
 20
678.425043
 42
0.054525
  0
VERTEX
  8
0
 10
351.380703
 20
668.070922
 42
0.030309
  0
VERTEX
  8
0
 10
364.500000
 20
657.495096
 42
-0.007219
  0
VERTEX
  8
0
 10
367.629398
 20
655.202343
 42
-0.009493
  0
VERTEX
  8
0
 10
370.413511
 20
653.015916
 42
-0.007316
  0
VERTEX
  8
0
 10
372.669221
 20
651.118486
 42
-0.085233
  0
VERTEX
  8
0
 10
373.397059
 20
650.230786
 42
-0.117842
  0
VERTEX
  8
0
 10
374.332714
 20
647.002604
 42
-0.027377
  0
VERTEX
  8
0
 10
374.291570
 20
641.314005
 42
-0.029005
  0
VERTEX
  8
0
 10
373.590575
 20
635.498754
 42
-0.074554
  0
VERTEX
  8
0
 10
372.234688
 20
631.498421
 42
-0.067656
  0
VERTEX
  8
0
 10
367.907498
 20
625.316773
 42
-0.074931
  0
VERTEX
  8
0
 10
362.218815
 20
620.759878
 42
-0.072591
  0
VERTEX
  8
0
 10
355.280537
 20
617.981647
 42
-0.058290
  0
VERTEX
  8
0
 10
347.287513
 20
617.021962
 42
-0.051753
  0
VERTEX
  8
0
 10
338.387441
 20
617.918254
 42
-0.079806
  0
VERTEX
  8
0
 10
331.171647
 20
620.659491
 42
-0.063450
  0
VERTEX
  8
0
 10
324.088360
 20
626.033712
 42
-0.022072
  0
VERTEX
  8
0
 10
315.330418
 20
635.418292
 42
0.020741
  0
VERTEX
  8
0
 10
313.440838
 20
637.453902
 42
0.082070
  0
VERTEX
  8
0
 10
312.052825
 20
638.439242
 42
0.097835
  0
VERTEX
  8
0
 10
310.551273
 20
638.836295
 42
0.036574
  0
VERTEX
  8
0
 10
308.361835
 20
638.815159
 42
0.033481
  0
VERTEX
  8
0
 10
306.445285
 20
638.526079
 42
0.073595
  0
VERTEX
  8
0
 10
305.063289
 20
638.000254
 42
0.083620
  0
VERTEX
  8
0
 10
304.002794
 20
637.147317
 42
0.054336
  0
VERTEX
  8
0
 10
303.089406
 20
635.862561
 42
0.135480
  0
VERTEX
  8
0
 10
302.188624
 20
632.183994
 42
0.098377
  0
VERTEX
  8
0
 10
303.135005
 20
628.054682
 42
0.065578
  0
VERTEX
  8
0
 10
306.104445
 20
623.237249
 42
0.025585
  0
VERTEX
  8
0
 10
311.355610
 20
617.422535
 42
0.039916
  0
VERTEX
  8
0
 10
319.524628
 20
610.467076
 42
0.054350
  0
VERTEX
  8
0
 10
327.930348
 20
605.688279
 42
0.056003
  0
VERTEX
  8
0
 10
336.963648
 20
602.928883
 42
0.046177
  0
VERTEX
  8
0
 10
347.000000
 20
602.000000
 42
0.037842
  0
VERTEX
  8
0
 10
355.288480
 20
602.628205
 42
0.044671
  0
VERTEX
  8
0
 10
362.924185
 20
604.501474
 42
0.044313
  0
VERTEX
  8
0
 10
370.156001
 20
607.717387
 42
0.036259
  0
VERTEX
  8
0
 10
377.239705
 20
612.353175
 42
0.000000
  0
VERTEX
  8
0
 10
381.780754
 20
615.819436
 42
0.000000
  0
VERTEX
  8
0
 10
387.640377
 20
611.408550
 42
0.077766
  0
VERTEX
  8
0
 10
401.337610
 20
604.101804
 42
0.079921
  0
VERTEX
  8
0
 10
416.482313
 20
601.419033
 42
0.078699
  0
VERTEX
  8
0
 10
431.902487
 20
603.611779
 42
0.072225
  0
VERTEX
  8
0
 10
446.394149
 20
610.478932
 42
0.060754
  0
VERTEX
  8
0
 10
456.636896
 20
619.248798
 42
0.103645
  0
VERTEX
  8
0
 10
462.355237
 20
628.901919
 42
0.217763
  0
VERTEX
  8
0
 10
461.657303
 20
635.817297
 42
0.266391
  0
VERTEX
  8
0
 10
456.107485
 20
639.000000
 42
0.076977
  0
VERTEX
  8
0
 10
453.811847
 20
638.644472
 42
0.097485
  0
VERTEX
  8
0
 10
451.933395
 20
637.614222
 42
0.037769
  0
VERTEX
  8
0
 10
449.519635
 20
635.266563
 42
0.003202
  0
VERTEX
  8
0
 10
443.821049
 20
628.734720
 42
-0.030579
  0
VERTEX
  8
0
 10
441.538132
 20
626.390304
 42
-0.026748
  0
VERTEX
  8
0
 10
438.885943
 20
624.227685
 42
-0.024608
  0
VERTEX
  8
0
 10
435.800292
 20
622.199987
 42
-0.018290
  0
VERTEX
  8
0
 10
432.212864
 20
620.260640
 42
-0.012954
  0
VERTEX
  8
0
 10
427.781047
 20
618.211402
 42
-0.041241
  0
VERTEX
  8
0
 10
424.691788
 20
617.171277
 42
-0.043757
  0
VERTEX
  8
0
 10
421.572110
 20
616.684209
 42
-0.016004
  0
VERTEX
  8
0
 10
417.104309
 20
616.525920
 42
-0.014560
  0
VERTEX
  8
0
 10
412.872950
 20
616.634730
 42
-0.037808
  0
VERTEX
  8
0
 10
409.851874
 20
617.030951
 42
-0.041597
  0
VERTEX
  8
0
 10
407.094736
 20
617.851118
 42
-0.021051
  0
VERTEX
  8
0
 10
403.775753
 20
619.310949
 42
-0.069833
  0
VERTEX
  8
0
 10
396.893504
 20
623.978144
 42
-0.082673
  0
VERTEX
  8
0
 10
392.014943
 20
630.129971
 42
-0.084969
  0
VERTEX
  8
0
 10
389.481455
 20
637.384877
 42
-0.078986
  0
VERTEX
  8
0
 10
389.412169
 20
645.262865
 42
-0.048915
  0
VERTEX
  8
0
 10
390.251320
 20
648.596448
 42
-0.100487
  0
VERTEX
  8
0
 10
391.640253
 20
650.889255
 42
-0.047216
  0
VERTEX
  8
0
 10
394.429725
 20
653.393020
 42
-0.004357
  0
VERTEX
  8
0
 10
401.949163
 20
658.857135
 42
0.020163
  0
VERTEX
  8
0
 10
409.895737
 20
665.024582
 42
0.021129
  0
VERTEX
  8
0
 10
417.191685
 20
671.721011
 42
0.022335
  0
VERTEX
  8
0
 10
423.082600
 20
678.155781
 42
0.058651
  0
VERTEX
  8
0
 10
426.504214
 20
683.384298
 42
0.113660
  0
VERTEX
  8
0
 10
428.987977
 20
693.714621
 42
0.162204
  0
VERTEX
  8
0
 10
426.115338
 20
702.621084
 42
0.129410
  0
VERTEX
  8
0
 10
417.724095
 20
709.403962
 42
0.061586
  0
VERTEX
  8
0
 10
404.357714
 20
713.529763
 42
0.029358
  0
VERTEX
  8
0
 10
395.269134
 20
714.604236
 42
0.017867
  0
VERTEX
  8
0
 10
384.453314
 20
714.855714
 42
0.017910
  0
VERTEX
  8
0
 10
373.742182
 20
714.337971
 42
0.031739
  0
SEQEND
  0
ENDSEC
  0
EOF
